<mxfile host="65bd71144e">
    <diagram id="LpqWkuAaXL5CNcw08eNq" name="Page-1">
        <mxGraphModel dx="722" dy="418" grid="0" gridSize="10" guides="1" tooltips="1" connect="1" arrows="1" fold="1" page="1" pageScale="1" pageWidth="1169" pageHeight="827" background="#ffffff" math="0" shadow="0">
            <root>
                <mxCell id="0"/>
                <mxCell id="1" parent="0"/>
                <mxCell id="1759" value="0.1&lt;sub&gt;10&lt;/sub&gt;=[0.000110011001...&lt;sub&gt;2&lt;/sub&gt;] = [1.100110011...&lt;sub&gt;2&lt;/sub&gt;]*2&lt;sup&gt;-4&lt;/sup&gt;&lt;br&gt;&lt;sub&gt;符号位为0&lt;/sub&gt;&lt;br&gt;&lt;sub&gt;指数位实际偏移为-4，填入值加上127为123&lt;br&gt;尾数部分为无限循环的数，因此会丢失精度&lt;br&gt;根据默认的舍入方案，最后一位为1&lt;br&gt;&lt;/sub&gt;" style="text;html=1;strokeColor=#000000;fillColor=none;align=left;verticalAlign=middle;whiteSpace=wrap;rounded=1;fontSize=14;spacing=12;fontColor=#000000;" vertex="1" parent="1">
                    <mxGeometry x="288" y="220" width="352" height="120" as="geometry"/>
                </mxCell>
                <mxCell id="1760" value="" style="shape=table;startSize=0;container=1;collapsible=0;childLayout=tableLayout;shadow=0;sketch=0;strokeWidth=1;fontSize=20;swimlaneFillColor=none;strokeColor=none;fillColor=none;fontColor=#000000;" vertex="1" parent="1">
                    <mxGeometry x="288" y="177" width="752" height="33" as="geometry"/>
                </mxCell>
                <mxCell id="1761" value="" style="shape=tableRow;horizontal=0;startSize=0;swimlaneHead=0;swimlaneBody=0;top=0;left=0;bottom=0;right=0;collapsible=0;dropTarget=0;fillColor=none;points=[[0,0.5],[1,0.5]];portConstraint=eastwest;shadow=0;sketch=0;strokeColor=#A50040;strokeWidth=1;fontSize=20;fontColor=#000000;" vertex="1" parent="1760">
                    <mxGeometry width="752" height="33" as="geometry"/>
                </mxCell>
                <mxCell id="1762" value="0" style="shape=partialRectangle;html=1;whiteSpace=wrap;connectable=0;overflow=hidden;top=1;left=1;bottom=1;right=1;pointerEvents=1;shadow=0;sketch=0;strokeWidth=1;fillColor=#1ba1e2;strokeColor=#000000;fontSize=20;fontColor=#FFFFFF;" vertex="1" parent="1761">
                    <mxGeometry width="23" height="33" as="geometry">
                        <mxRectangle width="23" height="33" as="alternateBounds"/>
                    </mxGeometry>
                </mxCell>
                <mxCell id="1763" value="0" style="shape=partialRectangle;html=1;whiteSpace=wrap;connectable=0;overflow=hidden;top=1;left=1;bottom=1;right=1;pointerEvents=1;shadow=0;sketch=0;strokeWidth=1;fillColor=#60a917;strokeColor=#000000;fontSize=20;fontColor=#FFFFFF;perimeterSpacing=0;" vertex="1" parent="1761">
                    <mxGeometry x="23" width="22" height="33" as="geometry">
                        <mxRectangle width="22" height="33" as="alternateBounds"/>
                    </mxGeometry>
                </mxCell>
                <mxCell id="1764" value="1" style="shape=partialRectangle;html=1;whiteSpace=wrap;connectable=0;overflow=hidden;top=1;left=1;bottom=1;right=1;pointerEvents=1;shadow=0;sketch=0;strokeWidth=1;fillColor=#60a917;strokeColor=#000000;fontSize=20;fontColor=#FFFFFF;perimeterSpacing=0;" vertex="1" parent="1761">
                    <mxGeometry x="45" width="21" height="33" as="geometry">
                        <mxRectangle width="21" height="33" as="alternateBounds"/>
                    </mxGeometry>
                </mxCell>
                <mxCell id="1765" value="1" style="shape=partialRectangle;html=1;whiteSpace=wrap;connectable=0;overflow=hidden;top=1;left=1;bottom=1;right=1;pointerEvents=1;shadow=0;sketch=0;strokeWidth=1;fillColor=#60a917;strokeColor=#000000;fontSize=20;fontColor=#FFFFFF;perimeterSpacing=0;" vertex="1" parent="1761">
                    <mxGeometry x="66" width="23" height="33" as="geometry">
                        <mxRectangle width="23" height="33" as="alternateBounds"/>
                    </mxGeometry>
                </mxCell>
                <mxCell id="1766" value="1" style="shape=partialRectangle;html=1;whiteSpace=wrap;connectable=0;overflow=hidden;top=1;left=1;bottom=1;right=1;pointerEvents=1;shadow=0;sketch=0;strokeWidth=1;fillColor=#60a917;strokeColor=#000000;fontSize=20;fontColor=#FFFFFF;perimeterSpacing=0;" vertex="1" parent="1761">
                    <mxGeometry x="89" width="21" height="33" as="geometry">
                        <mxRectangle width="21" height="33" as="alternateBounds"/>
                    </mxGeometry>
                </mxCell>
                <mxCell id="1767" value="1" style="shape=partialRectangle;html=1;whiteSpace=wrap;connectable=0;overflow=hidden;top=1;left=1;bottom=1;right=1;pointerEvents=1;shadow=0;sketch=0;strokeWidth=1;fillColor=#60a917;strokeColor=#000000;fontSize=20;fontColor=#FFFFFF;perimeterSpacing=0;" vertex="1" parent="1761">
                    <mxGeometry x="110" width="24" height="33" as="geometry">
                        <mxRectangle width="24" height="33" as="alternateBounds"/>
                    </mxGeometry>
                </mxCell>
                <mxCell id="1768" value="0" style="shape=partialRectangle;html=1;whiteSpace=wrap;connectable=0;overflow=hidden;top=1;left=1;bottom=1;right=1;pointerEvents=1;shadow=0;sketch=0;strokeWidth=1;fillColor=#60a917;strokeColor=#000000;fontSize=20;fontColor=#FFFFFF;perimeterSpacing=0;" vertex="1" parent="1761">
                    <mxGeometry x="134" width="20" height="33" as="geometry">
                        <mxRectangle width="20" height="33" as="alternateBounds"/>
                    </mxGeometry>
                </mxCell>
                <mxCell id="1769" value="1" style="shape=partialRectangle;html=1;whiteSpace=wrap;connectable=0;overflow=hidden;top=1;left=1;bottom=1;right=1;pointerEvents=1;shadow=0;sketch=0;strokeWidth=1;fillColor=#60a917;strokeColor=#000000;fontSize=20;fontColor=#FFFFFF;perimeterSpacing=0;" vertex="1" parent="1761">
                    <mxGeometry x="154" width="24" height="33" as="geometry">
                        <mxRectangle width="24" height="33" as="alternateBounds"/>
                    </mxGeometry>
                </mxCell>
                <mxCell id="1771" value="1" style="shape=partialRectangle;html=1;whiteSpace=wrap;connectable=0;overflow=hidden;top=1;left=1;bottom=1;right=1;pointerEvents=1;shadow=0;sketch=0;strokeWidth=1;fillColor=#60a917;strokeColor=#000000;fontSize=20;fontColor=#FFFFFF;perimeterSpacing=0;" vertex="1" parent="1761">
                    <mxGeometry x="178" width="21" height="33" as="geometry">
                        <mxRectangle width="21" height="33" as="alternateBounds"/>
                    </mxGeometry>
                </mxCell>
                <mxCell id="1772" value="1" style="shape=partialRectangle;html=1;whiteSpace=wrap;connectable=0;overflow=hidden;top=1;left=1;bottom=1;right=1;pointerEvents=1;shadow=0;sketch=0;strokeWidth=1;fillColor=#d80073;strokeColor=#000000;fontSize=20;fontColor=#FFFFFF;" vertex="1" parent="1761">
                    <mxGeometry x="199" width="21" height="33" as="geometry">
                        <mxRectangle width="21" height="33" as="alternateBounds"/>
                    </mxGeometry>
                </mxCell>
                <mxCell id="1773" value="0" style="shape=partialRectangle;html=1;whiteSpace=wrap;connectable=0;overflow=hidden;top=1;left=1;bottom=1;right=1;pointerEvents=1;shadow=0;sketch=0;strokeWidth=1;fillColor=#d80073;strokeColor=#000000;fontSize=20;fontColor=#FFFFFF;" vertex="1" parent="1761">
                    <mxGeometry x="220" width="23" height="33" as="geometry">
                        <mxRectangle width="23" height="33" as="alternateBounds"/>
                    </mxGeometry>
                </mxCell>
                <mxCell id="1774" value="0" style="shape=partialRectangle;html=1;whiteSpace=wrap;connectable=0;overflow=hidden;top=1;left=1;bottom=1;right=1;pointerEvents=1;shadow=0;sketch=0;strokeWidth=1;fillColor=#d80073;strokeColor=#000000;fontSize=20;fontColor=#FFFFFF;" vertex="1" parent="1761">
                    <mxGeometry x="243" width="21" height="33" as="geometry">
                        <mxRectangle width="21" height="33" as="alternateBounds"/>
                    </mxGeometry>
                </mxCell>
                <mxCell id="1775" value="1" style="shape=partialRectangle;html=1;whiteSpace=wrap;connectable=0;overflow=hidden;top=1;left=1;bottom=1;right=1;pointerEvents=1;shadow=0;sketch=0;strokeWidth=1;fillColor=#d80073;strokeColor=#000000;fontSize=20;fontColor=#FFFFFF;" vertex="1" parent="1761">
                    <mxGeometry x="264" width="24" height="33" as="geometry">
                        <mxRectangle width="24" height="33" as="alternateBounds"/>
                    </mxGeometry>
                </mxCell>
                <mxCell id="1776" value="1" style="shape=partialRectangle;html=1;whiteSpace=wrap;connectable=0;overflow=hidden;top=1;left=1;bottom=1;right=1;pointerEvents=1;shadow=0;sketch=0;strokeWidth=1;fillColor=#d80073;strokeColor=#000000;fontSize=20;fontColor=#FFFFFF;" vertex="1" parent="1761">
                    <mxGeometry x="288" width="20" height="33" as="geometry">
                        <mxRectangle width="20" height="33" as="alternateBounds"/>
                    </mxGeometry>
                </mxCell>
                <mxCell id="1777" value="0" style="shape=partialRectangle;html=1;whiteSpace=wrap;connectable=0;overflow=hidden;top=1;left=1;bottom=1;right=1;pointerEvents=1;shadow=0;sketch=0;strokeWidth=1;fillColor=#d80073;strokeColor=#000000;fontSize=20;fontColor=#FFFFFF;" vertex="1" parent="1761">
                    <mxGeometry x="308" width="23" height="33" as="geometry">
                        <mxRectangle width="23" height="33" as="alternateBounds"/>
                    </mxGeometry>
                </mxCell>
                <mxCell id="1778" value="0" style="shape=partialRectangle;html=1;whiteSpace=wrap;connectable=0;overflow=hidden;top=1;left=1;bottom=1;right=1;pointerEvents=1;shadow=0;sketch=0;strokeWidth=1;fillColor=#d80073;strokeColor=#000000;fontSize=20;fontColor=#FFFFFF;" vertex="1" parent="1761">
                    <mxGeometry x="331" width="22" height="33" as="geometry">
                        <mxRectangle width="22" height="33" as="alternateBounds"/>
                    </mxGeometry>
                </mxCell>
                <mxCell id="1779" value="1" style="shape=partialRectangle;html=1;whiteSpace=wrap;connectable=0;overflow=hidden;top=1;left=1;bottom=1;right=1;pointerEvents=1;shadow=0;sketch=0;strokeWidth=1;fillColor=#d80073;strokeColor=#000000;fontSize=20;fontColor=#FFFFFF;" vertex="1" parent="1761">
                    <mxGeometry x="353" width="23" height="33" as="geometry">
                        <mxRectangle width="23" height="33" as="alternateBounds"/>
                    </mxGeometry>
                </mxCell>
                <mxCell id="1780" value="1" style="shape=partialRectangle;html=1;whiteSpace=wrap;connectable=0;overflow=hidden;top=1;left=1;bottom=1;right=1;pointerEvents=1;shadow=0;sketch=0;strokeWidth=1;fillColor=#d80073;strokeColor=#000000;fontSize=20;fontColor=#FFFFFF;" vertex="1" parent="1761">
                    <mxGeometry x="376" width="23" height="33" as="geometry">
                        <mxRectangle width="23" height="33" as="alternateBounds"/>
                    </mxGeometry>
                </mxCell>
                <mxCell id="1781" value="0" style="shape=partialRectangle;html=1;whiteSpace=wrap;connectable=0;overflow=hidden;top=1;left=1;bottom=1;right=1;pointerEvents=1;shadow=0;sketch=0;strokeWidth=1;fillColor=#d80073;strokeColor=#000000;fontSize=20;fontColor=#FFFFFF;" vertex="1" parent="1761">
                    <mxGeometry x="399" width="21" height="33" as="geometry">
                        <mxRectangle width="21" height="33" as="alternateBounds"/>
                    </mxGeometry>
                </mxCell>
                <mxCell id="1782" value="0" style="shape=partialRectangle;html=1;whiteSpace=wrap;connectable=0;overflow=hidden;top=1;left=1;bottom=1;right=1;pointerEvents=1;shadow=0;sketch=0;strokeWidth=1;fillColor=#d80073;strokeColor=#000000;fontSize=20;fontColor=#FFFFFF;" vertex="1" parent="1761">
                    <mxGeometry x="420" width="24" height="33" as="geometry">
                        <mxRectangle width="24" height="33" as="alternateBounds"/>
                    </mxGeometry>
                </mxCell>
                <mxCell id="1783" value="1" style="shape=partialRectangle;html=1;whiteSpace=wrap;connectable=0;overflow=hidden;top=1;left=1;bottom=1;right=1;pointerEvents=1;shadow=0;sketch=0;strokeWidth=1;fillColor=#d80073;strokeColor=#000000;fontSize=20;fontColor=#FFFFFF;" vertex="1" parent="1761">
                    <mxGeometry x="444" width="19" height="33" as="geometry">
                        <mxRectangle width="19" height="33" as="alternateBounds"/>
                    </mxGeometry>
                </mxCell>
                <mxCell id="1784" value="1" style="shape=partialRectangle;html=1;whiteSpace=wrap;connectable=0;overflow=hidden;top=1;left=1;bottom=1;right=1;pointerEvents=1;shadow=0;sketch=0;strokeWidth=1;fillColor=#d80073;strokeColor=#000000;fontSize=20;fontColor=#FFFFFF;" vertex="1" parent="1761">
                    <mxGeometry x="463" width="24" height="33" as="geometry">
                        <mxRectangle width="24" height="33" as="alternateBounds"/>
                    </mxGeometry>
                </mxCell>
                <mxCell id="1785" value="0" style="shape=partialRectangle;html=1;whiteSpace=wrap;connectable=0;overflow=hidden;top=1;left=1;bottom=1;right=1;pointerEvents=1;shadow=0;sketch=0;strokeWidth=1;fillColor=#d80073;strokeColor=#000000;fontSize=20;fontColor=#FFFFFF;" vertex="1" parent="1761">
                    <mxGeometry x="487" width="22" height="33" as="geometry">
                        <mxRectangle width="22" height="33" as="alternateBounds"/>
                    </mxGeometry>
                </mxCell>
                <mxCell id="1786" value="0" style="shape=partialRectangle;html=1;whiteSpace=wrap;connectable=0;overflow=hidden;top=1;left=1;bottom=1;right=1;pointerEvents=1;shadow=0;sketch=0;strokeWidth=1;fillColor=#d80073;strokeColor=#000000;fontSize=20;fontColor=#FFFFFF;" vertex="1" parent="1761">
                    <mxGeometry x="509" width="22" height="33" as="geometry">
                        <mxRectangle width="22" height="33" as="alternateBounds"/>
                    </mxGeometry>
                </mxCell>
                <mxCell id="1787" value="1" style="shape=partialRectangle;html=1;whiteSpace=wrap;connectable=0;overflow=hidden;top=1;left=1;bottom=1;right=1;pointerEvents=1;shadow=0;sketch=0;strokeWidth=1;fillColor=#d80073;strokeColor=#000000;fontSize=20;fontColor=#FFFFFF;" vertex="1" parent="1761">
                    <mxGeometry x="531" width="23" height="33" as="geometry">
                        <mxRectangle width="23" height="33" as="alternateBounds"/>
                    </mxGeometry>
                </mxCell>
                <mxCell id="1788" value="1" style="shape=partialRectangle;html=1;whiteSpace=wrap;connectable=0;overflow=hidden;top=1;left=1;bottom=1;right=1;pointerEvents=1;shadow=0;sketch=0;strokeWidth=1;fillColor=#d80073;strokeColor=#000000;fontSize=20;fontColor=#FFFFFF;" vertex="1" parent="1761">
                    <mxGeometry x="554" width="19" height="33" as="geometry">
                        <mxRectangle width="19" height="33" as="alternateBounds"/>
                    </mxGeometry>
                </mxCell>
                <mxCell id="1789" value="0" style="shape=partialRectangle;html=1;whiteSpace=wrap;connectable=0;overflow=hidden;top=1;left=1;bottom=1;right=1;pointerEvents=1;shadow=0;sketch=0;strokeWidth=1;fillColor=#d80073;strokeColor=#000000;fontSize=20;fontColor=#FFFFFF;" vertex="1" parent="1761">
                    <mxGeometry x="573" width="24" height="33" as="geometry">
                        <mxRectangle width="24" height="33" as="alternateBounds"/>
                    </mxGeometry>
                </mxCell>
                <mxCell id="1790" value="0" style="shape=partialRectangle;html=1;whiteSpace=wrap;connectable=0;overflow=hidden;top=1;left=1;bottom=1;right=1;pointerEvents=1;shadow=0;sketch=0;strokeWidth=1;fillColor=#d80073;strokeColor=#000000;fontSize=20;fontColor=#FFFFFF;" vertex="1" parent="1761">
                    <mxGeometry x="597" width="20" height="33" as="geometry">
                        <mxRectangle width="20" height="33" as="alternateBounds"/>
                    </mxGeometry>
                </mxCell>
                <mxCell id="1791" value="1" style="shape=partialRectangle;html=1;whiteSpace=wrap;connectable=0;overflow=hidden;top=1;left=1;bottom=1;right=1;pointerEvents=1;shadow=0;sketch=0;strokeWidth=1;fillColor=#d80073;strokeColor=#000000;fontSize=20;fontColor=#FFFFFF;" vertex="1" parent="1761">
                    <mxGeometry x="617" width="24" height="33" as="geometry">
                        <mxRectangle width="24" height="33" as="alternateBounds"/>
                    </mxGeometry>
                </mxCell>
                <mxCell id="1792" value="1" style="shape=partialRectangle;html=1;whiteSpace=wrap;connectable=0;overflow=hidden;top=1;left=1;bottom=1;right=1;pointerEvents=1;shadow=0;sketch=0;strokeWidth=1;fillColor=#d80073;strokeColor=#000000;fontSize=20;fontColor=#FFFFFF;" vertex="1" parent="1761">
                    <mxGeometry x="641" width="22" height="33" as="geometry">
                        <mxRectangle width="22" height="33" as="alternateBounds"/>
                    </mxGeometry>
                </mxCell>
                <mxCell id="1793" value="0" style="shape=partialRectangle;html=1;whiteSpace=wrap;connectable=0;overflow=hidden;top=1;left=1;bottom=1;right=1;pointerEvents=1;shadow=0;sketch=0;strokeWidth=1;fillColor=#d80073;strokeColor=#000000;fontSize=20;fontColor=#FFFFFF;" vertex="1" parent="1761">
                    <mxGeometry x="663" width="21" height="33" as="geometry">
                        <mxRectangle width="21" height="33" as="alternateBounds"/>
                    </mxGeometry>
                </mxCell>
                <mxCell id="1794" value="&lt;strike&gt;0&lt;/strike&gt;1" style="shape=partialRectangle;html=1;whiteSpace=wrap;connectable=0;overflow=hidden;top=1;left=1;bottom=1;right=1;pointerEvents=1;shadow=0;sketch=0;strokeWidth=1;fillColor=#d80073;strokeColor=#000000;fontSize=20;fontColor=#FFFFFF;" vertex="1" parent="1761">
                    <mxGeometry x="684" width="23" height="33" as="geometry">
                        <mxRectangle width="23" height="33" as="alternateBounds"/>
                    </mxGeometry>
                </mxCell>
                <mxCell id="1797" value="1" style="shape=partialRectangle;html=1;whiteSpace=wrap;connectable=0;overflow=hidden;top=1;left=1;bottom=1;right=1;pointerEvents=1;shadow=0;sketch=0;strokeWidth=1;fontSize=20;dashed=1;fillColor=none;fontColor=#000000;strokeColor=#000000;" vertex="1" parent="1761">
                    <mxGeometry x="707" width="22" height="33" as="geometry">
                        <mxRectangle width="22" height="33" as="alternateBounds"/>
                    </mxGeometry>
                </mxCell>
                <mxCell id="1798" value="1" style="shape=partialRectangle;html=1;whiteSpace=wrap;connectable=0;overflow=hidden;top=1;left=1;bottom=1;right=1;pointerEvents=1;shadow=0;sketch=0;strokeWidth=1;fontSize=20;dashed=1;fillColor=none;fontColor=#000000;strokeColor=#000000;" vertex="1" parent="1761">
                    <mxGeometry x="729" width="23" height="33" as="geometry">
                        <mxRectangle width="23" height="33" as="alternateBounds"/>
                    </mxGeometry>
                </mxCell>
                <mxCell id="1795" value="0.1" style="text;strokeColor=none;fillColor=none;html=1;fontSize=24;fontStyle=1;verticalAlign=middle;align=center;fontColor=#000000;" vertex="1" parent="1">
                    <mxGeometry x="260" y="137" width="100" height="40" as="geometry"/>
                </mxCell>
                <mxCell id="1799" value="" style="shape=table;startSize=0;container=1;collapsible=0;childLayout=tableLayout;shadow=0;sketch=0;strokeWidth=1;fontSize=20;swimlaneFillColor=none;strokeColor=none;fillColor=none;fontColor=#000000;" vertex="1" parent="1">
                    <mxGeometry x="288" y="400" width="752" height="33" as="geometry"/>
                </mxCell>
                <mxCell id="1800" value="" style="shape=tableRow;horizontal=0;startSize=0;swimlaneHead=0;swimlaneBody=0;top=0;left=0;bottom=0;right=0;collapsible=0;dropTarget=0;fillColor=none;points=[[0,0.5],[1,0.5]];portConstraint=eastwest;shadow=0;sketch=0;strokeColor=#A50040;strokeWidth=1;fontSize=20;fontColor=#000000;" vertex="1" parent="1799">
                    <mxGeometry width="752" height="33" as="geometry"/>
                </mxCell>
                <mxCell id="1801" value="0" style="shape=partialRectangle;html=1;whiteSpace=wrap;connectable=0;overflow=hidden;top=1;left=1;bottom=1;right=1;pointerEvents=1;shadow=0;sketch=0;strokeWidth=1;fillColor=#1ba1e2;strokeColor=#000000;fontSize=20;fontColor=#FFFFFF;" vertex="1" parent="1800">
                    <mxGeometry width="23" height="33" as="geometry">
                        <mxRectangle width="23" height="33" as="alternateBounds"/>
                    </mxGeometry>
                </mxCell>
                <mxCell id="1802" value="0" style="shape=partialRectangle;html=1;whiteSpace=wrap;connectable=0;overflow=hidden;top=1;left=1;bottom=1;right=1;pointerEvents=1;shadow=0;sketch=0;strokeWidth=1;fillColor=#60a917;strokeColor=#000000;fontSize=20;fontColor=#FFFFFF;perimeterSpacing=0;" vertex="1" parent="1800">
                    <mxGeometry x="23" width="22" height="33" as="geometry">
                        <mxRectangle width="22" height="33" as="alternateBounds"/>
                    </mxGeometry>
                </mxCell>
                <mxCell id="1803" value="1" style="shape=partialRectangle;html=1;whiteSpace=wrap;connectable=0;overflow=hidden;top=1;left=1;bottom=1;right=1;pointerEvents=1;shadow=0;sketch=0;strokeWidth=1;fillColor=#60a917;strokeColor=#000000;fontSize=20;fontColor=#FFFFFF;perimeterSpacing=0;" vertex="1" parent="1800">
                    <mxGeometry x="45" width="21" height="33" as="geometry">
                        <mxRectangle width="21" height="33" as="alternateBounds"/>
                    </mxGeometry>
                </mxCell>
                <mxCell id="1804" value="1" style="shape=partialRectangle;html=1;whiteSpace=wrap;connectable=0;overflow=hidden;top=1;left=1;bottom=1;right=1;pointerEvents=1;shadow=0;sketch=0;strokeWidth=1;fillColor=#60a917;strokeColor=#000000;fontSize=20;fontColor=#FFFFFF;perimeterSpacing=0;" vertex="1" parent="1800">
                    <mxGeometry x="66" width="23" height="33" as="geometry">
                        <mxRectangle width="23" height="33" as="alternateBounds"/>
                    </mxGeometry>
                </mxCell>
                <mxCell id="1805" value="1" style="shape=partialRectangle;html=1;whiteSpace=wrap;connectable=0;overflow=hidden;top=1;left=1;bottom=1;right=1;pointerEvents=1;shadow=0;sketch=0;strokeWidth=1;fillColor=#60a917;strokeColor=#000000;fontSize=20;fontColor=#FFFFFF;perimeterSpacing=0;" vertex="1" parent="1800">
                    <mxGeometry x="89" width="21" height="33" as="geometry">
                        <mxRectangle width="21" height="33" as="alternateBounds"/>
                    </mxGeometry>
                </mxCell>
                <mxCell id="1806" value="1" style="shape=partialRectangle;html=1;whiteSpace=wrap;connectable=0;overflow=hidden;top=1;left=1;bottom=1;right=1;pointerEvents=1;shadow=0;sketch=0;strokeWidth=1;fillColor=#60a917;strokeColor=#000000;fontSize=20;fontColor=#FFFFFF;perimeterSpacing=0;" vertex="1" parent="1800">
                    <mxGeometry x="110" width="24" height="33" as="geometry">
                        <mxRectangle width="24" height="33" as="alternateBounds"/>
                    </mxGeometry>
                </mxCell>
                <mxCell id="1807" value="1" style="shape=partialRectangle;html=1;whiteSpace=wrap;connectable=0;overflow=hidden;top=1;left=1;bottom=1;right=1;pointerEvents=1;shadow=0;sketch=0;strokeWidth=1;fillColor=#60a917;strokeColor=#000000;fontSize=20;fontColor=#FFFFFF;perimeterSpacing=0;" vertex="1" parent="1800">
                    <mxGeometry x="134" width="20" height="33" as="geometry">
                        <mxRectangle width="20" height="33" as="alternateBounds"/>
                    </mxGeometry>
                </mxCell>
                <mxCell id="1808" value="0" style="shape=partialRectangle;html=1;whiteSpace=wrap;connectable=0;overflow=hidden;top=1;left=1;bottom=1;right=1;pointerEvents=1;shadow=0;sketch=0;strokeWidth=1;fillColor=#60a917;strokeColor=#000000;fontSize=20;fontColor=#FFFFFF;perimeterSpacing=0;" vertex="1" parent="1800">
                    <mxGeometry x="154" width="24" height="33" as="geometry">
                        <mxRectangle width="24" height="33" as="alternateBounds"/>
                    </mxGeometry>
                </mxCell>
                <mxCell id="1809" value="0" style="shape=partialRectangle;html=1;whiteSpace=wrap;connectable=0;overflow=hidden;top=1;left=1;bottom=1;right=1;pointerEvents=1;shadow=0;sketch=0;strokeWidth=1;fillColor=#60a917;strokeColor=#000000;fontSize=20;fontColor=#FFFFFF;perimeterSpacing=0;" vertex="1" parent="1800">
                    <mxGeometry x="178" width="21" height="33" as="geometry">
                        <mxRectangle width="21" height="33" as="alternateBounds"/>
                    </mxGeometry>
                </mxCell>
                <mxCell id="1810" value="1" style="shape=partialRectangle;html=1;whiteSpace=wrap;connectable=0;overflow=hidden;top=1;left=1;bottom=1;right=1;pointerEvents=1;shadow=0;sketch=0;strokeWidth=1;fillColor=#d80073;strokeColor=#000000;fontSize=20;fontColor=#FFFFFF;" vertex="1" parent="1800">
                    <mxGeometry x="199" width="21" height="33" as="geometry">
                        <mxRectangle width="21" height="33" as="alternateBounds"/>
                    </mxGeometry>
                </mxCell>
                <mxCell id="1811" value="0" style="shape=partialRectangle;html=1;whiteSpace=wrap;connectable=0;overflow=hidden;top=1;left=1;bottom=1;right=1;pointerEvents=1;shadow=0;sketch=0;strokeWidth=1;fillColor=#d80073;strokeColor=#000000;fontSize=20;fontColor=#FFFFFF;" vertex="1" parent="1800">
                    <mxGeometry x="220" width="23" height="33" as="geometry">
                        <mxRectangle width="23" height="33" as="alternateBounds"/>
                    </mxGeometry>
                </mxCell>
                <mxCell id="1812" value="0" style="shape=partialRectangle;html=1;whiteSpace=wrap;connectable=0;overflow=hidden;top=1;left=1;bottom=1;right=1;pointerEvents=1;shadow=0;sketch=0;strokeWidth=1;fillColor=#d80073;strokeColor=#000000;fontSize=20;fontColor=#FFFFFF;" vertex="1" parent="1800">
                    <mxGeometry x="243" width="21" height="33" as="geometry">
                        <mxRectangle width="21" height="33" as="alternateBounds"/>
                    </mxGeometry>
                </mxCell>
                <mxCell id="1813" value="1" style="shape=partialRectangle;html=1;whiteSpace=wrap;connectable=0;overflow=hidden;top=1;left=1;bottom=1;right=1;pointerEvents=1;shadow=0;sketch=0;strokeWidth=1;fillColor=#d80073;strokeColor=#000000;fontSize=20;fontColor=#FFFFFF;" vertex="1" parent="1800">
                    <mxGeometry x="264" width="24" height="33" as="geometry">
                        <mxRectangle width="24" height="33" as="alternateBounds"/>
                    </mxGeometry>
                </mxCell>
                <mxCell id="1814" value="1" style="shape=partialRectangle;html=1;whiteSpace=wrap;connectable=0;overflow=hidden;top=1;left=1;bottom=1;right=1;pointerEvents=1;shadow=0;sketch=0;strokeWidth=1;fillColor=#d80073;strokeColor=#000000;fontSize=20;fontColor=#FFFFFF;" vertex="1" parent="1800">
                    <mxGeometry x="288" width="20" height="33" as="geometry">
                        <mxRectangle width="20" height="33" as="alternateBounds"/>
                    </mxGeometry>
                </mxCell>
                <mxCell id="1815" value="0" style="shape=partialRectangle;html=1;whiteSpace=wrap;connectable=0;overflow=hidden;top=1;left=1;bottom=1;right=1;pointerEvents=1;shadow=0;sketch=0;strokeWidth=1;fillColor=#d80073;strokeColor=#000000;fontSize=20;fontColor=#FFFFFF;" vertex="1" parent="1800">
                    <mxGeometry x="308" width="23" height="33" as="geometry">
                        <mxRectangle width="23" height="33" as="alternateBounds"/>
                    </mxGeometry>
                </mxCell>
                <mxCell id="1816" value="0" style="shape=partialRectangle;html=1;whiteSpace=wrap;connectable=0;overflow=hidden;top=1;left=1;bottom=1;right=1;pointerEvents=1;shadow=0;sketch=0;strokeWidth=1;fillColor=#d80073;strokeColor=#000000;fontSize=20;fontColor=#FFFFFF;" vertex="1" parent="1800">
                    <mxGeometry x="331" width="22" height="33" as="geometry">
                        <mxRectangle width="22" height="33" as="alternateBounds"/>
                    </mxGeometry>
                </mxCell>
                <mxCell id="1817" value="1" style="shape=partialRectangle;html=1;whiteSpace=wrap;connectable=0;overflow=hidden;top=1;left=1;bottom=1;right=1;pointerEvents=1;shadow=0;sketch=0;strokeWidth=1;fillColor=#d80073;strokeColor=#000000;fontSize=20;fontColor=#FFFFFF;" vertex="1" parent="1800">
                    <mxGeometry x="353" width="23" height="33" as="geometry">
                        <mxRectangle width="23" height="33" as="alternateBounds"/>
                    </mxGeometry>
                </mxCell>
                <mxCell id="1818" value="1" style="shape=partialRectangle;html=1;whiteSpace=wrap;connectable=0;overflow=hidden;top=1;left=1;bottom=1;right=1;pointerEvents=1;shadow=0;sketch=0;strokeWidth=1;fillColor=#d80073;strokeColor=#000000;fontSize=20;fontColor=#FFFFFF;" vertex="1" parent="1800">
                    <mxGeometry x="376" width="23" height="33" as="geometry">
                        <mxRectangle width="23" height="33" as="alternateBounds"/>
                    </mxGeometry>
                </mxCell>
                <mxCell id="1819" value="0" style="shape=partialRectangle;html=1;whiteSpace=wrap;connectable=0;overflow=hidden;top=1;left=1;bottom=1;right=1;pointerEvents=1;shadow=0;sketch=0;strokeWidth=1;fillColor=#d80073;strokeColor=#000000;fontSize=20;fontColor=#FFFFFF;" vertex="1" parent="1800">
                    <mxGeometry x="399" width="21" height="33" as="geometry">
                        <mxRectangle width="21" height="33" as="alternateBounds"/>
                    </mxGeometry>
                </mxCell>
                <mxCell id="1820" value="0" style="shape=partialRectangle;html=1;whiteSpace=wrap;connectable=0;overflow=hidden;top=1;left=1;bottom=1;right=1;pointerEvents=1;shadow=0;sketch=0;strokeWidth=1;fillColor=#d80073;strokeColor=#000000;fontSize=20;fontColor=#FFFFFF;" vertex="1" parent="1800">
                    <mxGeometry x="420" width="24" height="33" as="geometry">
                        <mxRectangle width="24" height="33" as="alternateBounds"/>
                    </mxGeometry>
                </mxCell>
                <mxCell id="1821" value="1" style="shape=partialRectangle;html=1;whiteSpace=wrap;connectable=0;overflow=hidden;top=1;left=1;bottom=1;right=1;pointerEvents=1;shadow=0;sketch=0;strokeWidth=1;fillColor=#d80073;strokeColor=#000000;fontSize=20;fontColor=#FFFFFF;" vertex="1" parent="1800">
                    <mxGeometry x="444" width="19" height="33" as="geometry">
                        <mxRectangle width="19" height="33" as="alternateBounds"/>
                    </mxGeometry>
                </mxCell>
                <mxCell id="1822" value="1" style="shape=partialRectangle;html=1;whiteSpace=wrap;connectable=0;overflow=hidden;top=1;left=1;bottom=1;right=1;pointerEvents=1;shadow=0;sketch=0;strokeWidth=1;fillColor=#d80073;strokeColor=#000000;fontSize=20;fontColor=#FFFFFF;" vertex="1" parent="1800">
                    <mxGeometry x="463" width="24" height="33" as="geometry">
                        <mxRectangle width="24" height="33" as="alternateBounds"/>
                    </mxGeometry>
                </mxCell>
                <mxCell id="1823" value="0" style="shape=partialRectangle;html=1;whiteSpace=wrap;connectable=0;overflow=hidden;top=1;left=1;bottom=1;right=1;pointerEvents=1;shadow=0;sketch=0;strokeWidth=1;fillColor=#d80073;strokeColor=#000000;fontSize=20;fontColor=#FFFFFF;" vertex="1" parent="1800">
                    <mxGeometry x="487" width="22" height="33" as="geometry">
                        <mxRectangle width="22" height="33" as="alternateBounds"/>
                    </mxGeometry>
                </mxCell>
                <mxCell id="1824" value="0" style="shape=partialRectangle;html=1;whiteSpace=wrap;connectable=0;overflow=hidden;top=1;left=1;bottom=1;right=1;pointerEvents=1;shadow=0;sketch=0;strokeWidth=1;fillColor=#d80073;strokeColor=#000000;fontSize=20;fontColor=#FFFFFF;" vertex="1" parent="1800">
                    <mxGeometry x="509" width="22" height="33" as="geometry">
                        <mxRectangle width="22" height="33" as="alternateBounds"/>
                    </mxGeometry>
                </mxCell>
                <mxCell id="1825" value="1" style="shape=partialRectangle;html=1;whiteSpace=wrap;connectable=0;overflow=hidden;top=1;left=1;bottom=1;right=1;pointerEvents=1;shadow=0;sketch=0;strokeWidth=1;fillColor=#d80073;strokeColor=#000000;fontSize=20;fontColor=#FFFFFF;" vertex="1" parent="1800">
                    <mxGeometry x="531" width="23" height="33" as="geometry">
                        <mxRectangle width="23" height="33" as="alternateBounds"/>
                    </mxGeometry>
                </mxCell>
                <mxCell id="1826" value="1" style="shape=partialRectangle;html=1;whiteSpace=wrap;connectable=0;overflow=hidden;top=1;left=1;bottom=1;right=1;pointerEvents=1;shadow=0;sketch=0;strokeWidth=1;fillColor=#d80073;strokeColor=#000000;fontSize=20;fontColor=#FFFFFF;" vertex="1" parent="1800">
                    <mxGeometry x="554" width="19" height="33" as="geometry">
                        <mxRectangle width="19" height="33" as="alternateBounds"/>
                    </mxGeometry>
                </mxCell>
                <mxCell id="1827" value="0" style="shape=partialRectangle;html=1;whiteSpace=wrap;connectable=0;overflow=hidden;top=1;left=1;bottom=1;right=1;pointerEvents=1;shadow=0;sketch=0;strokeWidth=1;fillColor=#d80073;strokeColor=#000000;fontSize=20;fontColor=#FFFFFF;" vertex="1" parent="1800">
                    <mxGeometry x="573" width="24" height="33" as="geometry">
                        <mxRectangle width="24" height="33" as="alternateBounds"/>
                    </mxGeometry>
                </mxCell>
                <mxCell id="1828" value="0" style="shape=partialRectangle;html=1;whiteSpace=wrap;connectable=0;overflow=hidden;top=1;left=1;bottom=1;right=1;pointerEvents=1;shadow=0;sketch=0;strokeWidth=1;fillColor=#d80073;strokeColor=#000000;fontSize=20;fontColor=#FFFFFF;" vertex="1" parent="1800">
                    <mxGeometry x="597" width="20" height="33" as="geometry">
                        <mxRectangle width="20" height="33" as="alternateBounds"/>
                    </mxGeometry>
                </mxCell>
                <mxCell id="1829" value="1" style="shape=partialRectangle;html=1;whiteSpace=wrap;connectable=0;overflow=hidden;top=1;left=1;bottom=1;right=1;pointerEvents=1;shadow=0;sketch=0;strokeWidth=1;fillColor=#d80073;strokeColor=#000000;fontSize=20;fontColor=#FFFFFF;" vertex="1" parent="1800">
                    <mxGeometry x="617" width="24" height="33" as="geometry">
                        <mxRectangle width="24" height="33" as="alternateBounds"/>
                    </mxGeometry>
                </mxCell>
                <mxCell id="1830" value="1" style="shape=partialRectangle;html=1;whiteSpace=wrap;connectable=0;overflow=hidden;top=1;left=1;bottom=1;right=1;pointerEvents=1;shadow=0;sketch=0;strokeWidth=1;fillColor=#d80073;strokeColor=#000000;fontSize=20;fontColor=#FFFFFF;" vertex="1" parent="1800">
                    <mxGeometry x="641" width="22" height="33" as="geometry">
                        <mxRectangle width="22" height="33" as="alternateBounds"/>
                    </mxGeometry>
                </mxCell>
                <mxCell id="1831" value="0" style="shape=partialRectangle;html=1;whiteSpace=wrap;connectable=0;overflow=hidden;top=1;left=1;bottom=1;right=1;pointerEvents=1;shadow=0;sketch=0;strokeWidth=1;fillColor=#d80073;strokeColor=#000000;fontSize=20;fontColor=#FFFFFF;" vertex="1" parent="1800">
                    <mxGeometry x="663" width="21" height="33" as="geometry">
                        <mxRectangle width="21" height="33" as="alternateBounds"/>
                    </mxGeometry>
                </mxCell>
                <mxCell id="1832" value="&lt;strike&gt;0&lt;/strike&gt;1" style="shape=partialRectangle;html=1;whiteSpace=wrap;connectable=0;overflow=hidden;top=1;left=1;bottom=1;right=1;pointerEvents=1;shadow=0;sketch=0;strokeWidth=1;fillColor=#d80073;strokeColor=#000000;fontSize=20;fontColor=#FFFFFF;" vertex="1" parent="1800">
                    <mxGeometry x="684" width="23" height="33" as="geometry">
                        <mxRectangle width="23" height="33" as="alternateBounds"/>
                    </mxGeometry>
                </mxCell>
                <mxCell id="1833" value="1" style="shape=partialRectangle;html=1;whiteSpace=wrap;connectable=0;overflow=hidden;top=1;left=1;bottom=1;right=1;pointerEvents=1;shadow=0;sketch=0;strokeWidth=1;fontSize=20;dashed=1;fontColor=#000000;strokeColor=#000000;fillColor=none;" vertex="1" parent="1800">
                    <mxGeometry x="707" width="22" height="33" as="geometry">
                        <mxRectangle width="22" height="33" as="alternateBounds"/>
                    </mxGeometry>
                </mxCell>
                <mxCell id="1834" value="1" style="shape=partialRectangle;html=1;whiteSpace=wrap;connectable=0;overflow=hidden;top=1;left=1;bottom=1;right=1;pointerEvents=1;shadow=0;sketch=0;strokeWidth=1;fontSize=20;dashed=1;fontColor=#000000;strokeColor=#000000;fillColor=none;" vertex="1" parent="1800">
                    <mxGeometry x="729" width="23" height="33" as="geometry">
                        <mxRectangle width="23" height="33" as="alternateBounds"/>
                    </mxGeometry>
                </mxCell>
                <mxCell id="1835" value="0.2" style="text;strokeColor=none;fillColor=none;html=1;fontSize=24;fontStyle=1;verticalAlign=middle;align=center;fontColor=#000000;" vertex="1" parent="1">
                    <mxGeometry x="260" y="360" width="100" height="40" as="geometry"/>
                </mxCell>
                <mxCell id="1836" value="&lt;sub&gt;同理，0.2也会经过规约丢失一部分精度&lt;br&gt;&lt;/sub&gt;" style="text;html=1;strokeColor=#000000;fillColor=none;align=left;verticalAlign=middle;whiteSpace=wrap;rounded=1;fontSize=14;spacing=12;fontColor=#000000;" vertex="1" parent="1">
                    <mxGeometry x="288" y="450" width="352" height="40" as="geometry"/>
                </mxCell>
                <mxCell id="1837" value="浮点运算" style="text;strokeColor=none;fillColor=none;html=1;fontSize=24;fontStyle=1;verticalAlign=middle;align=center;fontColor=#000000;" vertex="1" parent="1">
                    <mxGeometry x="288" y="510" width="100" height="40" as="geometry"/>
                </mxCell>
                <mxCell id="1838" value="" style="shape=table;startSize=0;container=1;collapsible=0;childLayout=tableLayout;shadow=0;sketch=0;strokeWidth=1;fontSize=20;swimlaneFillColor=none;strokeColor=none;fillColor=none;fontColor=#000000;" vertex="1" parent="1">
                    <mxGeometry x="288" y="717" width="707" height="33" as="geometry"/>
                </mxCell>
                <mxCell id="1839" value="" style="shape=tableRow;horizontal=0;startSize=0;swimlaneHead=0;swimlaneBody=0;top=0;left=0;bottom=0;right=0;collapsible=0;dropTarget=0;fillColor=none;points=[[0,0.5],[1,0.5]];portConstraint=eastwest;shadow=0;sketch=0;strokeColor=#A50040;strokeWidth=1;fontSize=20;fontColor=#000000;" vertex="1" parent="1838">
                    <mxGeometry width="707" height="33" as="geometry"/>
                </mxCell>
                <mxCell id="1840" value="0" style="shape=partialRectangle;html=1;whiteSpace=wrap;connectable=0;overflow=hidden;top=1;left=1;bottom=1;right=1;pointerEvents=1;shadow=0;sketch=0;strokeWidth=1;fillColor=#1ba1e2;strokeColor=#000000;fontSize=20;fontColor=#FFFFFF;" vertex="1" parent="1839">
                    <mxGeometry width="23" height="33" as="geometry">
                        <mxRectangle width="23" height="33" as="alternateBounds"/>
                    </mxGeometry>
                </mxCell>
                <mxCell id="1841" value="0" style="shape=partialRectangle;html=1;whiteSpace=wrap;connectable=0;overflow=hidden;top=1;left=1;bottom=1;right=1;pointerEvents=1;shadow=0;sketch=0;strokeWidth=1;fillColor=#60a917;strokeColor=#000000;fontSize=20;fontColor=#FFFFFF;perimeterSpacing=0;" vertex="1" parent="1839">
                    <mxGeometry x="23" width="22" height="33" as="geometry">
                        <mxRectangle width="22" height="33" as="alternateBounds"/>
                    </mxGeometry>
                </mxCell>
                <mxCell id="1842" value="1" style="shape=partialRectangle;html=1;whiteSpace=wrap;connectable=0;overflow=hidden;top=1;left=1;bottom=1;right=1;pointerEvents=1;shadow=0;sketch=0;strokeWidth=1;fillColor=#60a917;strokeColor=#000000;fontSize=20;fontColor=#FFFFFF;perimeterSpacing=0;" vertex="1" parent="1839">
                    <mxGeometry x="45" width="21" height="33" as="geometry">
                        <mxRectangle width="21" height="33" as="alternateBounds"/>
                    </mxGeometry>
                </mxCell>
                <mxCell id="1843" value="1" style="shape=partialRectangle;html=1;whiteSpace=wrap;connectable=0;overflow=hidden;top=1;left=1;bottom=1;right=1;pointerEvents=1;shadow=0;sketch=0;strokeWidth=1;fillColor=#60a917;strokeColor=#000000;fontSize=20;fontColor=#FFFFFF;perimeterSpacing=0;" vertex="1" parent="1839">
                    <mxGeometry x="66" width="23" height="33" as="geometry">
                        <mxRectangle width="23" height="33" as="alternateBounds"/>
                    </mxGeometry>
                </mxCell>
                <mxCell id="1844" value="1" style="shape=partialRectangle;html=1;whiteSpace=wrap;connectable=0;overflow=hidden;top=1;left=1;bottom=1;right=1;pointerEvents=1;shadow=0;sketch=0;strokeWidth=1;fillColor=#60a917;strokeColor=#000000;fontSize=20;fontColor=#FFFFFF;perimeterSpacing=0;" vertex="1" parent="1839">
                    <mxGeometry x="89" width="21" height="33" as="geometry">
                        <mxRectangle width="21" height="33" as="alternateBounds"/>
                    </mxGeometry>
                </mxCell>
                <mxCell id="1845" value="1" style="shape=partialRectangle;html=1;whiteSpace=wrap;connectable=0;overflow=hidden;top=1;left=1;bottom=1;right=1;pointerEvents=1;shadow=0;sketch=0;strokeWidth=1;fillColor=#60a917;strokeColor=#000000;fontSize=20;fontColor=#FFFFFF;perimeterSpacing=0;" vertex="1" parent="1839">
                    <mxGeometry x="110" width="24" height="33" as="geometry">
                        <mxRectangle width="24" height="33" as="alternateBounds"/>
                    </mxGeometry>
                </mxCell>
                <mxCell id="1846" value="1" style="shape=partialRectangle;html=1;whiteSpace=wrap;connectable=0;overflow=hidden;top=1;left=1;bottom=1;right=1;pointerEvents=1;shadow=0;sketch=0;strokeWidth=1;fillColor=#60a917;strokeColor=#000000;fontSize=20;fontColor=#FFFFFF;perimeterSpacing=0;" vertex="1" parent="1839">
                    <mxGeometry x="134" width="20" height="33" as="geometry">
                        <mxRectangle width="20" height="33" as="alternateBounds"/>
                    </mxGeometry>
                </mxCell>
                <mxCell id="1847" value="0" style="shape=partialRectangle;html=1;whiteSpace=wrap;connectable=0;overflow=hidden;top=1;left=1;bottom=1;right=1;pointerEvents=1;shadow=0;sketch=0;strokeWidth=1;fillColor=#60a917;strokeColor=#000000;fontSize=20;fontColor=#FFFFFF;perimeterSpacing=0;" vertex="1" parent="1839">
                    <mxGeometry x="154" width="24" height="33" as="geometry">
                        <mxRectangle width="24" height="33" as="alternateBounds"/>
                    </mxGeometry>
                </mxCell>
                <mxCell id="1848" value="0" style="shape=partialRectangle;html=1;whiteSpace=wrap;connectable=0;overflow=hidden;top=1;left=1;bottom=1;right=1;pointerEvents=1;shadow=0;sketch=0;strokeWidth=1;fillColor=#60a917;strokeColor=#000000;fontSize=20;fontColor=#FFFFFF;perimeterSpacing=0;" vertex="1" parent="1839">
                    <mxGeometry x="178" width="21" height="33" as="geometry">
                        <mxRectangle width="21" height="33" as="alternateBounds"/>
                    </mxGeometry>
                </mxCell>
                <mxCell id="1849" value="1" style="shape=partialRectangle;html=1;whiteSpace=wrap;connectable=0;overflow=hidden;top=1;left=1;bottom=1;right=1;pointerEvents=1;shadow=0;sketch=0;strokeWidth=1;fillColor=#d80073;strokeColor=#000000;fontSize=20;fontColor=#FFFFFF;" vertex="1" parent="1839">
                    <mxGeometry x="199" width="21" height="33" as="geometry">
                        <mxRectangle width="21" height="33" as="alternateBounds"/>
                    </mxGeometry>
                </mxCell>
                <mxCell id="1850" value="0" style="shape=partialRectangle;html=1;whiteSpace=wrap;connectable=0;overflow=hidden;top=1;left=1;bottom=1;right=1;pointerEvents=1;shadow=0;sketch=0;strokeWidth=1;fillColor=#d80073;strokeColor=#000000;fontSize=20;fontColor=#FFFFFF;" vertex="1" parent="1839">
                    <mxGeometry x="220" width="23" height="33" as="geometry">
                        <mxRectangle width="23" height="33" as="alternateBounds"/>
                    </mxGeometry>
                </mxCell>
                <mxCell id="1851" value="0" style="shape=partialRectangle;html=1;whiteSpace=wrap;connectable=0;overflow=hidden;top=1;left=1;bottom=1;right=1;pointerEvents=1;shadow=0;sketch=0;strokeWidth=1;fillColor=#d80073;strokeColor=#000000;fontSize=20;fontColor=#FFFFFF;" vertex="1" parent="1839">
                    <mxGeometry x="243" width="21" height="33" as="geometry">
                        <mxRectangle width="21" height="33" as="alternateBounds"/>
                    </mxGeometry>
                </mxCell>
                <mxCell id="1852" value="1" style="shape=partialRectangle;html=1;whiteSpace=wrap;connectable=0;overflow=hidden;top=1;left=1;bottom=1;right=1;pointerEvents=1;shadow=0;sketch=0;strokeWidth=1;fillColor=#d80073;strokeColor=#000000;fontSize=20;fontColor=#FFFFFF;" vertex="1" parent="1839">
                    <mxGeometry x="264" width="24" height="33" as="geometry">
                        <mxRectangle width="24" height="33" as="alternateBounds"/>
                    </mxGeometry>
                </mxCell>
                <mxCell id="1853" value="1" style="shape=partialRectangle;html=1;whiteSpace=wrap;connectable=0;overflow=hidden;top=1;left=1;bottom=1;right=1;pointerEvents=1;shadow=0;sketch=0;strokeWidth=1;fillColor=#d80073;strokeColor=#000000;fontSize=20;fontColor=#FFFFFF;" vertex="1" parent="1839">
                    <mxGeometry x="288" width="20" height="33" as="geometry">
                        <mxRectangle width="20" height="33" as="alternateBounds"/>
                    </mxGeometry>
                </mxCell>
                <mxCell id="1854" value="0" style="shape=partialRectangle;html=1;whiteSpace=wrap;connectable=0;overflow=hidden;top=1;left=1;bottom=1;right=1;pointerEvents=1;shadow=0;sketch=0;strokeWidth=1;fillColor=#d80073;strokeColor=#000000;fontSize=20;fontColor=#FFFFFF;" vertex="1" parent="1839">
                    <mxGeometry x="308" width="23" height="33" as="geometry">
                        <mxRectangle width="23" height="33" as="alternateBounds"/>
                    </mxGeometry>
                </mxCell>
                <mxCell id="1855" value="0" style="shape=partialRectangle;html=1;whiteSpace=wrap;connectable=0;overflow=hidden;top=1;left=1;bottom=1;right=1;pointerEvents=1;shadow=0;sketch=0;strokeWidth=1;fillColor=#d80073;strokeColor=#000000;fontSize=20;fontColor=#FFFFFF;" vertex="1" parent="1839">
                    <mxGeometry x="331" width="22" height="33" as="geometry">
                        <mxRectangle width="22" height="33" as="alternateBounds"/>
                    </mxGeometry>
                </mxCell>
                <mxCell id="1856" value="1" style="shape=partialRectangle;html=1;whiteSpace=wrap;connectable=0;overflow=hidden;top=1;left=1;bottom=1;right=1;pointerEvents=1;shadow=0;sketch=0;strokeWidth=1;fillColor=#d80073;strokeColor=#000000;fontSize=20;fontColor=#FFFFFF;" vertex="1" parent="1839">
                    <mxGeometry x="353" width="23" height="33" as="geometry">
                        <mxRectangle width="23" height="33" as="alternateBounds"/>
                    </mxGeometry>
                </mxCell>
                <mxCell id="1857" value="1" style="shape=partialRectangle;html=1;whiteSpace=wrap;connectable=0;overflow=hidden;top=1;left=1;bottom=1;right=1;pointerEvents=1;shadow=0;sketch=0;strokeWidth=1;fillColor=#d80073;strokeColor=#000000;fontSize=20;fontColor=#FFFFFF;" vertex="1" parent="1839">
                    <mxGeometry x="376" width="23" height="33" as="geometry">
                        <mxRectangle width="23" height="33" as="alternateBounds"/>
                    </mxGeometry>
                </mxCell>
                <mxCell id="1858" value="0" style="shape=partialRectangle;html=1;whiteSpace=wrap;connectable=0;overflow=hidden;top=1;left=1;bottom=1;right=1;pointerEvents=1;shadow=0;sketch=0;strokeWidth=1;fillColor=#d80073;strokeColor=#000000;fontSize=20;fontColor=#FFFFFF;" vertex="1" parent="1839">
                    <mxGeometry x="399" width="21" height="33" as="geometry">
                        <mxRectangle width="21" height="33" as="alternateBounds"/>
                    </mxGeometry>
                </mxCell>
                <mxCell id="1859" value="0" style="shape=partialRectangle;html=1;whiteSpace=wrap;connectable=0;overflow=hidden;top=1;left=1;bottom=1;right=1;pointerEvents=1;shadow=0;sketch=0;strokeWidth=1;fillColor=#d80073;strokeColor=#000000;fontSize=20;fontColor=#FFFFFF;" vertex="1" parent="1839">
                    <mxGeometry x="420" width="24" height="33" as="geometry">
                        <mxRectangle width="24" height="33" as="alternateBounds"/>
                    </mxGeometry>
                </mxCell>
                <mxCell id="1860" value="1" style="shape=partialRectangle;html=1;whiteSpace=wrap;connectable=0;overflow=hidden;top=1;left=1;bottom=1;right=1;pointerEvents=1;shadow=0;sketch=0;strokeWidth=1;fillColor=#d80073;strokeColor=#000000;fontSize=20;fontColor=#FFFFFF;" vertex="1" parent="1839">
                    <mxGeometry x="444" width="19" height="33" as="geometry">
                        <mxRectangle width="19" height="33" as="alternateBounds"/>
                    </mxGeometry>
                </mxCell>
                <mxCell id="1861" value="1" style="shape=partialRectangle;html=1;whiteSpace=wrap;connectable=0;overflow=hidden;top=1;left=1;bottom=1;right=1;pointerEvents=1;shadow=0;sketch=0;strokeWidth=1;fillColor=#d80073;strokeColor=#000000;fontSize=20;fontColor=#FFFFFF;" vertex="1" parent="1839">
                    <mxGeometry x="463" width="24" height="33" as="geometry">
                        <mxRectangle width="24" height="33" as="alternateBounds"/>
                    </mxGeometry>
                </mxCell>
                <mxCell id="1862" value="0" style="shape=partialRectangle;html=1;whiteSpace=wrap;connectable=0;overflow=hidden;top=1;left=1;bottom=1;right=1;pointerEvents=1;shadow=0;sketch=0;strokeWidth=1;fillColor=#d80073;strokeColor=#000000;fontSize=20;fontColor=#FFFFFF;" vertex="1" parent="1839">
                    <mxGeometry x="487" width="22" height="33" as="geometry">
                        <mxRectangle width="22" height="33" as="alternateBounds"/>
                    </mxGeometry>
                </mxCell>
                <mxCell id="1863" value="0" style="shape=partialRectangle;html=1;whiteSpace=wrap;connectable=0;overflow=hidden;top=1;left=1;bottom=1;right=1;pointerEvents=1;shadow=0;sketch=0;strokeWidth=1;fillColor=#d80073;strokeColor=#000000;fontSize=20;fontColor=#FFFFFF;" vertex="1" parent="1839">
                    <mxGeometry x="509" width="22" height="33" as="geometry">
                        <mxRectangle width="22" height="33" as="alternateBounds"/>
                    </mxGeometry>
                </mxCell>
                <mxCell id="1864" value="1" style="shape=partialRectangle;html=1;whiteSpace=wrap;connectable=0;overflow=hidden;top=1;left=1;bottom=1;right=1;pointerEvents=1;shadow=0;sketch=0;strokeWidth=1;fillColor=#d80073;strokeColor=#000000;fontSize=20;fontColor=#FFFFFF;" vertex="1" parent="1839">
                    <mxGeometry x="531" width="23" height="33" as="geometry">
                        <mxRectangle width="23" height="33" as="alternateBounds"/>
                    </mxGeometry>
                </mxCell>
                <mxCell id="1865" value="1" style="shape=partialRectangle;html=1;whiteSpace=wrap;connectable=0;overflow=hidden;top=1;left=1;bottom=1;right=1;pointerEvents=1;shadow=0;sketch=0;strokeWidth=1;fillColor=#d80073;strokeColor=#000000;fontSize=20;fontColor=#FFFFFF;" vertex="1" parent="1839">
                    <mxGeometry x="554" width="19" height="33" as="geometry">
                        <mxRectangle width="19" height="33" as="alternateBounds"/>
                    </mxGeometry>
                </mxCell>
                <mxCell id="1866" value="0" style="shape=partialRectangle;html=1;whiteSpace=wrap;connectable=0;overflow=hidden;top=1;left=1;bottom=1;right=1;pointerEvents=1;shadow=0;sketch=0;strokeWidth=1;fillColor=#d80073;strokeColor=#000000;fontSize=20;fontColor=#FFFFFF;" vertex="1" parent="1839">
                    <mxGeometry x="573" width="24" height="33" as="geometry">
                        <mxRectangle width="24" height="33" as="alternateBounds"/>
                    </mxGeometry>
                </mxCell>
                <mxCell id="1867" value="0" style="shape=partialRectangle;html=1;whiteSpace=wrap;connectable=0;overflow=hidden;top=1;left=1;bottom=1;right=1;pointerEvents=1;shadow=0;sketch=0;strokeWidth=1;fillColor=#d80073;strokeColor=#000000;fontSize=20;fontColor=#FFFFFF;" vertex="1" parent="1839">
                    <mxGeometry x="597" width="20" height="33" as="geometry">
                        <mxRectangle width="20" height="33" as="alternateBounds"/>
                    </mxGeometry>
                </mxCell>
                <mxCell id="1868" value="1" style="shape=partialRectangle;html=1;whiteSpace=wrap;connectable=0;overflow=hidden;top=1;left=1;bottom=1;right=1;pointerEvents=1;shadow=0;sketch=0;strokeWidth=1;fillColor=#d80073;strokeColor=#000000;fontSize=20;fontColor=#FFFFFF;" vertex="1" parent="1839">
                    <mxGeometry x="617" width="24" height="33" as="geometry">
                        <mxRectangle width="24" height="33" as="alternateBounds"/>
                    </mxGeometry>
                </mxCell>
                <mxCell id="1869" value="1" style="shape=partialRectangle;html=1;whiteSpace=wrap;connectable=0;overflow=hidden;top=1;left=1;bottom=1;right=1;pointerEvents=1;shadow=0;sketch=0;strokeWidth=1;fillColor=#d80073;strokeColor=#000000;fontSize=20;fontColor=#FFFFFF;" vertex="1" parent="1839">
                    <mxGeometry x="641" width="22" height="33" as="geometry">
                        <mxRectangle width="22" height="33" as="alternateBounds"/>
                    </mxGeometry>
                </mxCell>
                <mxCell id="1870" value="0" style="shape=partialRectangle;html=1;whiteSpace=wrap;connectable=0;overflow=hidden;top=1;left=1;bottom=1;right=1;pointerEvents=1;shadow=0;sketch=0;strokeWidth=1;fillColor=#d80073;strokeColor=#000000;fontSize=20;fontColor=#FFFFFF;" vertex="1" parent="1839">
                    <mxGeometry x="663" width="21" height="33" as="geometry">
                        <mxRectangle width="21" height="33" as="alternateBounds"/>
                    </mxGeometry>
                </mxCell>
                <mxCell id="1871" value="1" style="shape=partialRectangle;html=1;whiteSpace=wrap;connectable=0;overflow=hidden;top=1;left=1;bottom=1;right=1;pointerEvents=1;shadow=0;sketch=0;strokeWidth=1;fillColor=#d80073;strokeColor=#000000;fontSize=20;fontColor=#FFFFFF;" vertex="1" parent="1839">
                    <mxGeometry x="684" width="23" height="33" as="geometry">
                        <mxRectangle width="23" height="33" as="alternateBounds"/>
                    </mxGeometry>
                </mxCell>
                <mxCell id="1874" value="" style="shape=table;startSize=0;container=1;collapsible=0;childLayout=tableLayout;shadow=0;sketch=0;strokeWidth=1;fontSize=20;swimlaneFillColor=none;strokeColor=none;fillColor=none;fontColor=#000000;" vertex="1" parent="1">
                    <mxGeometry x="288" y="610" width="707" height="33" as="geometry"/>
                </mxCell>
                <mxCell id="1875" value="" style="shape=tableRow;horizontal=0;startSize=0;swimlaneHead=0;swimlaneBody=0;top=0;left=0;bottom=0;right=0;collapsible=0;dropTarget=0;fillColor=none;points=[[0,0.5],[1,0.5]];portConstraint=eastwest;shadow=0;sketch=0;strokeColor=#A50040;strokeWidth=1;fontSize=20;fontColor=#000000;" vertex="1" parent="1874">
                    <mxGeometry width="707" height="33" as="geometry"/>
                </mxCell>
                <mxCell id="1876" value="0" style="shape=partialRectangle;html=1;whiteSpace=wrap;connectable=0;overflow=hidden;top=1;left=1;bottom=1;right=1;pointerEvents=1;shadow=0;sketch=0;strokeWidth=1;fillColor=#1ba1e2;strokeColor=#000000;fontSize=20;fontColor=#FFFFFF;" vertex="1" parent="1875">
                    <mxGeometry width="23" height="33" as="geometry">
                        <mxRectangle width="23" height="33" as="alternateBounds"/>
                    </mxGeometry>
                </mxCell>
                <mxCell id="1877" value="0" style="shape=partialRectangle;html=1;whiteSpace=wrap;connectable=0;overflow=hidden;top=1;left=1;bottom=1;right=1;pointerEvents=1;shadow=0;sketch=0;strokeWidth=1;fillColor=#60a917;strokeColor=#000000;fontSize=20;fontColor=#FFFFFF;perimeterSpacing=0;" vertex="1" parent="1875">
                    <mxGeometry x="23" width="22" height="33" as="geometry">
                        <mxRectangle width="22" height="33" as="alternateBounds"/>
                    </mxGeometry>
                </mxCell>
                <mxCell id="1878" value="1" style="shape=partialRectangle;html=1;whiteSpace=wrap;connectable=0;overflow=hidden;top=1;left=1;bottom=1;right=1;pointerEvents=1;shadow=0;sketch=0;strokeWidth=1;fillColor=#60a917;strokeColor=#000000;fontSize=20;fontColor=#FFFFFF;perimeterSpacing=0;" vertex="1" parent="1875">
                    <mxGeometry x="45" width="21" height="33" as="geometry">
                        <mxRectangle width="21" height="33" as="alternateBounds"/>
                    </mxGeometry>
                </mxCell>
                <mxCell id="1879" value="1" style="shape=partialRectangle;html=1;whiteSpace=wrap;connectable=0;overflow=hidden;top=1;left=1;bottom=1;right=1;pointerEvents=1;shadow=0;sketch=0;strokeWidth=1;fillColor=#60a917;strokeColor=#000000;fontSize=20;fontColor=#FFFFFF;perimeterSpacing=0;" vertex="1" parent="1875">
                    <mxGeometry x="66" width="23" height="33" as="geometry">
                        <mxRectangle width="23" height="33" as="alternateBounds"/>
                    </mxGeometry>
                </mxCell>
                <mxCell id="1880" value="1" style="shape=partialRectangle;html=1;whiteSpace=wrap;connectable=0;overflow=hidden;top=1;left=1;bottom=1;right=1;pointerEvents=1;shadow=0;sketch=0;strokeWidth=1;fillColor=#60a917;strokeColor=#000000;fontSize=20;fontColor=#FFFFFF;perimeterSpacing=0;" vertex="1" parent="1875">
                    <mxGeometry x="89" width="21" height="33" as="geometry">
                        <mxRectangle width="21" height="33" as="alternateBounds"/>
                    </mxGeometry>
                </mxCell>
                <mxCell id="1881" value="1" style="shape=partialRectangle;html=1;whiteSpace=wrap;connectable=0;overflow=hidden;top=1;left=1;bottom=1;right=1;pointerEvents=1;shadow=0;sketch=0;strokeWidth=1;fillColor=#60a917;strokeColor=#000000;fontSize=20;fontColor=#FFFFFF;perimeterSpacing=0;" vertex="1" parent="1875">
                    <mxGeometry x="110" width="24" height="33" as="geometry">
                        <mxRectangle width="24" height="33" as="alternateBounds"/>
                    </mxGeometry>
                </mxCell>
                <mxCell id="1882" value="0" style="shape=partialRectangle;html=1;whiteSpace=wrap;connectable=0;overflow=hidden;top=1;left=1;bottom=1;right=1;pointerEvents=1;shadow=0;sketch=0;strokeWidth=1;fillColor=#60a917;strokeColor=#000000;fontSize=20;fontColor=#FFFFFF;perimeterSpacing=0;" vertex="1" parent="1875">
                    <mxGeometry x="134" width="20" height="33" as="geometry">
                        <mxRectangle width="20" height="33" as="alternateBounds"/>
                    </mxGeometry>
                </mxCell>
                <mxCell id="1883" value="1" style="shape=partialRectangle;html=1;whiteSpace=wrap;connectable=0;overflow=hidden;top=1;left=1;bottom=1;right=1;pointerEvents=1;shadow=0;sketch=0;strokeWidth=1;fillColor=#60a917;strokeColor=#000000;fontSize=20;fontColor=#FFFFFF;perimeterSpacing=0;" vertex="1" parent="1875">
                    <mxGeometry x="154" width="24" height="33" as="geometry">
                        <mxRectangle width="24" height="33" as="alternateBounds"/>
                    </mxGeometry>
                </mxCell>
                <mxCell id="1884" value="1" style="shape=partialRectangle;html=1;whiteSpace=wrap;connectable=0;overflow=hidden;top=1;left=1;bottom=1;right=1;pointerEvents=1;shadow=0;sketch=0;strokeWidth=1;fillColor=#60a917;strokeColor=#000000;fontSize=20;fontColor=#FFFFFF;perimeterSpacing=0;" vertex="1" parent="1875">
                    <mxGeometry x="178" width="21" height="33" as="geometry">
                        <mxRectangle width="21" height="33" as="alternateBounds"/>
                    </mxGeometry>
                </mxCell>
                <mxCell id="1885" value="1" style="shape=partialRectangle;html=1;whiteSpace=wrap;connectable=0;overflow=hidden;top=1;left=1;bottom=1;right=1;pointerEvents=1;shadow=0;sketch=0;strokeWidth=1;fillColor=#d80073;strokeColor=#000000;fontSize=20;fontColor=#FFFFFF;" vertex="1" parent="1875">
                    <mxGeometry x="199" width="21" height="33" as="geometry">
                        <mxRectangle width="21" height="33" as="alternateBounds"/>
                    </mxGeometry>
                </mxCell>
                <mxCell id="1886" value="0" style="shape=partialRectangle;html=1;whiteSpace=wrap;connectable=0;overflow=hidden;top=1;left=1;bottom=1;right=1;pointerEvents=1;shadow=0;sketch=0;strokeWidth=1;fillColor=#d80073;strokeColor=#000000;fontSize=20;fontColor=#FFFFFF;" vertex="1" parent="1875">
                    <mxGeometry x="220" width="23" height="33" as="geometry">
                        <mxRectangle width="23" height="33" as="alternateBounds"/>
                    </mxGeometry>
                </mxCell>
                <mxCell id="1887" value="0" style="shape=partialRectangle;html=1;whiteSpace=wrap;connectable=0;overflow=hidden;top=1;left=1;bottom=1;right=1;pointerEvents=1;shadow=0;sketch=0;strokeWidth=1;fillColor=#d80073;strokeColor=#000000;fontSize=20;fontColor=#FFFFFF;" vertex="1" parent="1875">
                    <mxGeometry x="243" width="21" height="33" as="geometry">
                        <mxRectangle width="21" height="33" as="alternateBounds"/>
                    </mxGeometry>
                </mxCell>
                <mxCell id="1888" value="1" style="shape=partialRectangle;html=1;whiteSpace=wrap;connectable=0;overflow=hidden;top=1;left=1;bottom=1;right=1;pointerEvents=1;shadow=0;sketch=0;strokeWidth=1;fillColor=#d80073;strokeColor=#000000;fontSize=20;fontColor=#FFFFFF;" vertex="1" parent="1875">
                    <mxGeometry x="264" width="24" height="33" as="geometry">
                        <mxRectangle width="24" height="33" as="alternateBounds"/>
                    </mxGeometry>
                </mxCell>
                <mxCell id="1889" value="1" style="shape=partialRectangle;html=1;whiteSpace=wrap;connectable=0;overflow=hidden;top=1;left=1;bottom=1;right=1;pointerEvents=1;shadow=0;sketch=0;strokeWidth=1;fillColor=#d80073;strokeColor=#000000;fontSize=20;fontColor=#FFFFFF;" vertex="1" parent="1875">
                    <mxGeometry x="288" width="20" height="33" as="geometry">
                        <mxRectangle width="20" height="33" as="alternateBounds"/>
                    </mxGeometry>
                </mxCell>
                <mxCell id="1890" value="0" style="shape=partialRectangle;html=1;whiteSpace=wrap;connectable=0;overflow=hidden;top=1;left=1;bottom=1;right=1;pointerEvents=1;shadow=0;sketch=0;strokeWidth=1;fillColor=#d80073;strokeColor=#000000;fontSize=20;fontColor=#FFFFFF;" vertex="1" parent="1875">
                    <mxGeometry x="308" width="23" height="33" as="geometry">
                        <mxRectangle width="23" height="33" as="alternateBounds"/>
                    </mxGeometry>
                </mxCell>
                <mxCell id="1891" value="0" style="shape=partialRectangle;html=1;whiteSpace=wrap;connectable=0;overflow=hidden;top=1;left=1;bottom=1;right=1;pointerEvents=1;shadow=0;sketch=0;strokeWidth=1;fillColor=#d80073;strokeColor=#000000;fontSize=20;fontColor=#FFFFFF;" vertex="1" parent="1875">
                    <mxGeometry x="331" width="22" height="33" as="geometry">
                        <mxRectangle width="22" height="33" as="alternateBounds"/>
                    </mxGeometry>
                </mxCell>
                <mxCell id="1892" value="1" style="shape=partialRectangle;html=1;whiteSpace=wrap;connectable=0;overflow=hidden;top=1;left=1;bottom=1;right=1;pointerEvents=1;shadow=0;sketch=0;strokeWidth=1;fillColor=#d80073;strokeColor=#000000;fontSize=20;fontColor=#FFFFFF;" vertex="1" parent="1875">
                    <mxGeometry x="353" width="23" height="33" as="geometry">
                        <mxRectangle width="23" height="33" as="alternateBounds"/>
                    </mxGeometry>
                </mxCell>
                <mxCell id="1893" value="1" style="shape=partialRectangle;html=1;whiteSpace=wrap;connectable=0;overflow=hidden;top=1;left=1;bottom=1;right=1;pointerEvents=1;shadow=0;sketch=0;strokeWidth=1;fillColor=#d80073;strokeColor=#000000;fontSize=20;fontColor=#FFFFFF;" vertex="1" parent="1875">
                    <mxGeometry x="376" width="23" height="33" as="geometry">
                        <mxRectangle width="23" height="33" as="alternateBounds"/>
                    </mxGeometry>
                </mxCell>
                <mxCell id="1894" value="0" style="shape=partialRectangle;html=1;whiteSpace=wrap;connectable=0;overflow=hidden;top=1;left=1;bottom=1;right=1;pointerEvents=1;shadow=0;sketch=0;strokeWidth=1;fillColor=#d80073;strokeColor=#000000;fontSize=20;fontColor=#FFFFFF;" vertex="1" parent="1875">
                    <mxGeometry x="399" width="21" height="33" as="geometry">
                        <mxRectangle width="21" height="33" as="alternateBounds"/>
                    </mxGeometry>
                </mxCell>
                <mxCell id="1895" value="0" style="shape=partialRectangle;html=1;whiteSpace=wrap;connectable=0;overflow=hidden;top=1;left=1;bottom=1;right=1;pointerEvents=1;shadow=0;sketch=0;strokeWidth=1;fillColor=#d80073;strokeColor=#000000;fontSize=20;fontColor=#FFFFFF;" vertex="1" parent="1875">
                    <mxGeometry x="420" width="24" height="33" as="geometry">
                        <mxRectangle width="24" height="33" as="alternateBounds"/>
                    </mxGeometry>
                </mxCell>
                <mxCell id="1896" value="1" style="shape=partialRectangle;html=1;whiteSpace=wrap;connectable=0;overflow=hidden;top=1;left=1;bottom=1;right=1;pointerEvents=1;shadow=0;sketch=0;strokeWidth=1;fillColor=#d80073;strokeColor=#000000;fontSize=20;fontColor=#FFFFFF;" vertex="1" parent="1875">
                    <mxGeometry x="444" width="19" height="33" as="geometry">
                        <mxRectangle width="19" height="33" as="alternateBounds"/>
                    </mxGeometry>
                </mxCell>
                <mxCell id="1897" value="1" style="shape=partialRectangle;html=1;whiteSpace=wrap;connectable=0;overflow=hidden;top=1;left=1;bottom=1;right=1;pointerEvents=1;shadow=0;sketch=0;strokeWidth=1;fillColor=#d80073;strokeColor=#000000;fontSize=20;fontColor=#FFFFFF;" vertex="1" parent="1875">
                    <mxGeometry x="463" width="24" height="33" as="geometry">
                        <mxRectangle width="24" height="33" as="alternateBounds"/>
                    </mxGeometry>
                </mxCell>
                <mxCell id="1898" value="0" style="shape=partialRectangle;html=1;whiteSpace=wrap;connectable=0;overflow=hidden;top=1;left=1;bottom=1;right=1;pointerEvents=1;shadow=0;sketch=0;strokeWidth=1;fillColor=#d80073;strokeColor=#000000;fontSize=20;fontColor=#FFFFFF;" vertex="1" parent="1875">
                    <mxGeometry x="487" width="22" height="33" as="geometry">
                        <mxRectangle width="22" height="33" as="alternateBounds"/>
                    </mxGeometry>
                </mxCell>
                <mxCell id="1899" value="0" style="shape=partialRectangle;html=1;whiteSpace=wrap;connectable=0;overflow=hidden;top=1;left=1;bottom=1;right=1;pointerEvents=1;shadow=0;sketch=0;strokeWidth=1;fillColor=#d80073;strokeColor=#000000;fontSize=20;fontColor=#FFFFFF;" vertex="1" parent="1875">
                    <mxGeometry x="509" width="22" height="33" as="geometry">
                        <mxRectangle width="22" height="33" as="alternateBounds"/>
                    </mxGeometry>
                </mxCell>
                <mxCell id="1900" value="1" style="shape=partialRectangle;html=1;whiteSpace=wrap;connectable=0;overflow=hidden;top=1;left=1;bottom=1;right=1;pointerEvents=1;shadow=0;sketch=0;strokeWidth=1;fillColor=#d80073;strokeColor=#000000;fontSize=20;fontColor=#FFFFFF;" vertex="1" parent="1875">
                    <mxGeometry x="531" width="23" height="33" as="geometry">
                        <mxRectangle width="23" height="33" as="alternateBounds"/>
                    </mxGeometry>
                </mxCell>
                <mxCell id="1901" value="1" style="shape=partialRectangle;html=1;whiteSpace=wrap;connectable=0;overflow=hidden;top=1;left=1;bottom=1;right=1;pointerEvents=1;shadow=0;sketch=0;strokeWidth=1;fillColor=#d80073;strokeColor=#000000;fontSize=20;fontColor=#FFFFFF;" vertex="1" parent="1875">
                    <mxGeometry x="554" width="19" height="33" as="geometry">
                        <mxRectangle width="19" height="33" as="alternateBounds"/>
                    </mxGeometry>
                </mxCell>
                <mxCell id="1902" value="0" style="shape=partialRectangle;html=1;whiteSpace=wrap;connectable=0;overflow=hidden;top=1;left=1;bottom=1;right=1;pointerEvents=1;shadow=0;sketch=0;strokeWidth=1;fillColor=#d80073;strokeColor=#000000;fontSize=20;fontColor=#FFFFFF;" vertex="1" parent="1875">
                    <mxGeometry x="573" width="24" height="33" as="geometry">
                        <mxRectangle width="24" height="33" as="alternateBounds"/>
                    </mxGeometry>
                </mxCell>
                <mxCell id="1903" value="0" style="shape=partialRectangle;html=1;whiteSpace=wrap;connectable=0;overflow=hidden;top=1;left=1;bottom=1;right=1;pointerEvents=1;shadow=0;sketch=0;strokeWidth=1;fillColor=#d80073;strokeColor=#000000;fontSize=20;fontColor=#FFFFFF;" vertex="1" parent="1875">
                    <mxGeometry x="597" width="20" height="33" as="geometry">
                        <mxRectangle width="20" height="33" as="alternateBounds"/>
                    </mxGeometry>
                </mxCell>
                <mxCell id="1904" value="1" style="shape=partialRectangle;html=1;whiteSpace=wrap;connectable=0;overflow=hidden;top=1;left=1;bottom=1;right=1;pointerEvents=1;shadow=0;sketch=0;strokeWidth=1;fillColor=#d80073;strokeColor=#000000;fontSize=20;fontColor=#FFFFFF;" vertex="1" parent="1875">
                    <mxGeometry x="617" width="24" height="33" as="geometry">
                        <mxRectangle width="24" height="33" as="alternateBounds"/>
                    </mxGeometry>
                </mxCell>
                <mxCell id="1905" value="1" style="shape=partialRectangle;html=1;whiteSpace=wrap;connectable=0;overflow=hidden;top=1;left=1;bottom=1;right=1;pointerEvents=1;shadow=0;sketch=0;strokeWidth=1;fillColor=#d80073;strokeColor=#000000;fontSize=20;fontColor=#FFFFFF;" vertex="1" parent="1875">
                    <mxGeometry x="641" width="22" height="33" as="geometry">
                        <mxRectangle width="22" height="33" as="alternateBounds"/>
                    </mxGeometry>
                </mxCell>
                <mxCell id="1906" value="0" style="shape=partialRectangle;html=1;whiteSpace=wrap;connectable=0;overflow=hidden;top=1;left=1;bottom=1;right=1;pointerEvents=1;shadow=0;sketch=0;strokeWidth=1;fillColor=#d80073;strokeColor=#000000;fontSize=20;fontColor=#FFFFFF;" vertex="1" parent="1875">
                    <mxGeometry x="663" width="21" height="33" as="geometry">
                        <mxRectangle width="21" height="33" as="alternateBounds"/>
                    </mxGeometry>
                </mxCell>
                <mxCell id="1907" value="1" style="shape=partialRectangle;html=1;whiteSpace=wrap;connectable=0;overflow=hidden;top=1;left=1;bottom=1;right=1;pointerEvents=1;shadow=0;sketch=0;strokeWidth=1;fillColor=#d80073;strokeColor=#000000;fontSize=20;fontColor=#FFFFFF;" vertex="1" parent="1875">
                    <mxGeometry x="684" width="23" height="33" as="geometry">
                        <mxRectangle width="23" height="33" as="alternateBounds"/>
                    </mxGeometry>
                </mxCell>
                <mxCell id="1910" value="1. 对阶" style="text;html=1;align=center;verticalAlign=middle;resizable=0;points=[];autosize=1;strokeColor=none;fillColor=none;fontSize=20;fontColor=#000000;" vertex="1" parent="1">
                    <mxGeometry x="280" y="543" width="90" height="40" as="geometry"/>
                </mxCell>
                <mxCell id="1911" value="0.1" style="text;strokeColor=none;fillColor=none;html=1;fontSize=24;fontStyle=1;verticalAlign=middle;align=right;fontColor=#000000;" vertex="1" parent="1">
                    <mxGeometry x="180" y="610" width="100" height="40" as="geometry"/>
                </mxCell>
                <mxCell id="1912" value="0.2" style="text;strokeColor=none;fillColor=none;html=1;fontSize=24;fontStyle=1;verticalAlign=middle;align=right;fontColor=#000000;" vertex="1" parent="1">
                    <mxGeometry x="180" y="713.5" width="100" height="40" as="geometry"/>
                </mxCell>
                <mxCell id="1913" value="&lt;font style=&quot;font-size: 12px;&quot;&gt;0.1的阶码小，因此把0.1的尾码右移1位（尾码首位为1）&lt;/font&gt;" style="shape=callout;whiteSpace=wrap;html=1;perimeter=calloutPerimeter;rounded=1;strokeColor=#000000;fontSize=20;fillColor=none;gradientColor=none;size=33;position=0.21;position2=0.21;fontColor=#000000;" vertex="1" parent="1">
                    <mxGeometry x="420" y="530" width="190" height="80" as="geometry"/>
                </mxCell>
                <mxCell id="1914" value="" style="shape=table;startSize=0;container=1;collapsible=0;childLayout=tableLayout;shadow=0;sketch=0;strokeWidth=1;fontSize=20;swimlaneFillColor=none;strokeColor=none;fillColor=none;fontColor=#FFFFFF;" vertex="1" parent="1">
                    <mxGeometry x="288" y="660" width="220" height="33" as="geometry"/>
                </mxCell>
                <mxCell id="1915" value="" style="shape=tableRow;horizontal=0;startSize=0;swimlaneHead=0;swimlaneBody=0;top=0;left=0;bottom=0;right=0;collapsible=0;dropTarget=0;fillColor=none;points=[[0,0.5],[1,0.5]];portConstraint=eastwest;shadow=0;sketch=0;strokeColor=#A50040;strokeWidth=1;fontSize=20;fontColor=#000000;" vertex="1" parent="1914">
                    <mxGeometry width="220" height="33" as="geometry"/>
                </mxCell>
                <mxCell id="1916" value="0" style="shape=partialRectangle;html=1;whiteSpace=wrap;connectable=0;overflow=hidden;top=1;left=1;bottom=1;right=1;pointerEvents=1;shadow=0;sketch=0;strokeWidth=1;fillColor=#1ba1e2;strokeColor=#000000;fontSize=20;fontColor=#FFFFFF;" vertex="1" parent="1915">
                    <mxGeometry width="23" height="33" as="geometry">
                        <mxRectangle width="23" height="33" as="alternateBounds"/>
                    </mxGeometry>
                </mxCell>
                <mxCell id="1917" value="0" style="shape=partialRectangle;html=1;whiteSpace=wrap;connectable=0;overflow=hidden;top=1;left=1;bottom=1;right=1;pointerEvents=1;shadow=0;sketch=0;strokeWidth=1;fillColor=#60a917;strokeColor=#000000;fontSize=20;fontColor=#FFFFFF;perimeterSpacing=0;" vertex="1" parent="1915">
                    <mxGeometry x="23" width="22" height="33" as="geometry">
                        <mxRectangle width="22" height="33" as="alternateBounds"/>
                    </mxGeometry>
                </mxCell>
                <mxCell id="1918" value="1" style="shape=partialRectangle;html=1;whiteSpace=wrap;connectable=0;overflow=hidden;top=1;left=1;bottom=1;right=1;pointerEvents=1;shadow=0;sketch=0;strokeWidth=1;fillColor=#60a917;strokeColor=#000000;fontSize=20;fontColor=#FFFFFF;perimeterSpacing=0;" vertex="1" parent="1915">
                    <mxGeometry x="45" width="21" height="33" as="geometry">
                        <mxRectangle width="21" height="33" as="alternateBounds"/>
                    </mxGeometry>
                </mxCell>
                <mxCell id="1919" value="1" style="shape=partialRectangle;html=1;whiteSpace=wrap;connectable=0;overflow=hidden;top=1;left=1;bottom=1;right=1;pointerEvents=1;shadow=0;sketch=0;strokeWidth=1;fillColor=#60a917;strokeColor=#000000;fontSize=20;fontColor=#FFFFFF;perimeterSpacing=0;" vertex="1" parent="1915">
                    <mxGeometry x="66" width="23" height="33" as="geometry">
                        <mxRectangle width="23" height="33" as="alternateBounds"/>
                    </mxGeometry>
                </mxCell>
                <mxCell id="1920" value="1" style="shape=partialRectangle;html=1;whiteSpace=wrap;connectable=0;overflow=hidden;top=1;left=1;bottom=1;right=1;pointerEvents=1;shadow=0;sketch=0;strokeWidth=1;fillColor=#60a917;strokeColor=#000000;fontSize=20;fontColor=#FFFFFF;perimeterSpacing=0;" vertex="1" parent="1915">
                    <mxGeometry x="89" width="21" height="33" as="geometry">
                        <mxRectangle width="21" height="33" as="alternateBounds"/>
                    </mxGeometry>
                </mxCell>
                <mxCell id="1921" value="1" style="shape=partialRectangle;html=1;whiteSpace=wrap;connectable=0;overflow=hidden;top=1;left=1;bottom=1;right=1;pointerEvents=1;shadow=0;sketch=0;strokeWidth=1;fillColor=#60a917;strokeColor=#000000;fontSize=20;fontColor=#FFFFFF;perimeterSpacing=0;" vertex="1" parent="1915">
                    <mxGeometry x="110" width="24" height="33" as="geometry">
                        <mxRectangle width="24" height="33" as="alternateBounds"/>
                    </mxGeometry>
                </mxCell>
                <mxCell id="1922" value="1" style="shape=partialRectangle;html=1;whiteSpace=wrap;connectable=0;overflow=hidden;top=1;left=1;bottom=1;right=1;pointerEvents=1;shadow=0;sketch=0;strokeWidth=1;fillColor=#60a917;strokeColor=#000000;fontSize=20;fontColor=#FFFFFF;perimeterSpacing=0;" vertex="1" parent="1915">
                    <mxGeometry x="134" width="20" height="33" as="geometry">
                        <mxRectangle width="20" height="33" as="alternateBounds"/>
                    </mxGeometry>
                </mxCell>
                <mxCell id="1923" value="0" style="shape=partialRectangle;html=1;whiteSpace=wrap;connectable=0;overflow=hidden;top=1;left=1;bottom=1;right=1;pointerEvents=1;shadow=0;sketch=0;strokeWidth=1;fillColor=#60a917;strokeColor=#000000;fontSize=20;fontColor=#FFFFFF;perimeterSpacing=0;" vertex="1" parent="1915">
                    <mxGeometry x="154" width="24" height="33" as="geometry">
                        <mxRectangle width="24" height="33" as="alternateBounds"/>
                    </mxGeometry>
                </mxCell>
                <mxCell id="1924" value="0" style="shape=partialRectangle;html=1;whiteSpace=wrap;connectable=0;overflow=hidden;top=1;left=1;bottom=1;right=1;pointerEvents=1;shadow=0;sketch=0;strokeWidth=1;fillColor=#60a917;strokeColor=#000000;fontSize=20;fontColor=#FFFFFF;perimeterSpacing=0;" vertex="1" parent="1915">
                    <mxGeometry x="178" width="21" height="33" as="geometry">
                        <mxRectangle width="21" height="33" as="alternateBounds"/>
                    </mxGeometry>
                </mxCell>
                <mxCell id="2020" value="1" style="shape=partialRectangle;html=1;whiteSpace=wrap;connectable=0;overflow=hidden;top=1;left=1;bottom=1;right=1;pointerEvents=1;shadow=0;sketch=0;strokeWidth=1;fontSize=20;perimeterSpacing=0;dashed=1;fontColor=#000000;fillColor=none;strokeColor=#000000;" vertex="1" parent="1915">
                    <mxGeometry x="199" width="21" height="33" as="geometry">
                        <mxRectangle width="21" height="33" as="alternateBounds"/>
                    </mxGeometry>
                </mxCell>
                <mxCell id="1997" value="1" style="shape=partialRectangle;html=1;whiteSpace=wrap;connectable=0;overflow=hidden;top=1;left=1;bottom=1;right=1;pointerEvents=1;shadow=0;sketch=0;strokeWidth=1;fillColor=#d80073;strokeColor=#000000;fontSize=20;fontColor=#FFFFFF;" vertex="1" parent="1">
                    <mxGeometry x="509" y="660" width="21" height="33" as="geometry">
                        <mxRectangle width="21" height="33" as="alternateBounds"/>
                    </mxGeometry>
                </mxCell>
                <mxCell id="1998" value="0" style="shape=partialRectangle;html=1;whiteSpace=wrap;connectable=0;overflow=hidden;top=1;left=1;bottom=1;right=1;pointerEvents=1;shadow=0;sketch=0;strokeWidth=1;fillColor=#d80073;strokeColor=#000000;fontSize=20;fontColor=#FFFFFF;" vertex="1" parent="1">
                    <mxGeometry x="530" y="660" width="23" height="33" as="geometry">
                        <mxRectangle width="23" height="33" as="alternateBounds"/>
                    </mxGeometry>
                </mxCell>
                <mxCell id="1999" value="0" style="shape=partialRectangle;html=1;whiteSpace=wrap;connectable=0;overflow=hidden;top=1;left=1;bottom=1;right=1;pointerEvents=1;shadow=0;sketch=0;strokeWidth=1;fillColor=#d80073;strokeColor=#000000;fontSize=20;fontColor=#FFFFFF;" vertex="1" parent="1">
                    <mxGeometry x="553" y="660" width="21" height="33" as="geometry">
                        <mxRectangle width="21" height="33" as="alternateBounds"/>
                    </mxGeometry>
                </mxCell>
                <mxCell id="2000" value="1" style="shape=partialRectangle;html=1;whiteSpace=wrap;connectable=0;overflow=hidden;top=1;left=1;bottom=1;right=1;pointerEvents=1;shadow=0;sketch=0;strokeWidth=1;fillColor=#d80073;strokeColor=#000000;fontSize=20;fontColor=#FFFFFF;" vertex="1" parent="1">
                    <mxGeometry x="574" y="660" width="24" height="33" as="geometry">
                        <mxRectangle width="24" height="33" as="alternateBounds"/>
                    </mxGeometry>
                </mxCell>
                <mxCell id="2001" value="1" style="shape=partialRectangle;html=1;whiteSpace=wrap;connectable=0;overflow=hidden;top=1;left=1;bottom=1;right=1;pointerEvents=1;shadow=0;sketch=0;strokeWidth=1;fillColor=#d80073;strokeColor=#000000;fontSize=20;fontColor=#FFFFFF;" vertex="1" parent="1">
                    <mxGeometry x="598" y="660" width="20" height="33" as="geometry">
                        <mxRectangle width="20" height="33" as="alternateBounds"/>
                    </mxGeometry>
                </mxCell>
                <mxCell id="2002" value="0" style="shape=partialRectangle;html=1;whiteSpace=wrap;connectable=0;overflow=hidden;top=1;left=1;bottom=1;right=1;pointerEvents=1;shadow=0;sketch=0;strokeWidth=1;fillColor=#d80073;strokeColor=#000000;fontSize=20;fontColor=#FFFFFF;" vertex="1" parent="1">
                    <mxGeometry x="618" y="660" width="23" height="33" as="geometry">
                        <mxRectangle width="23" height="33" as="alternateBounds"/>
                    </mxGeometry>
                </mxCell>
                <mxCell id="2003" value="0" style="shape=partialRectangle;html=1;whiteSpace=wrap;connectable=0;overflow=hidden;top=1;left=1;bottom=1;right=1;pointerEvents=1;shadow=0;sketch=0;strokeWidth=1;fillColor=#d80073;strokeColor=#000000;fontSize=20;fontColor=#FFFFFF;" vertex="1" parent="1">
                    <mxGeometry x="641" y="660" width="22" height="33" as="geometry">
                        <mxRectangle width="22" height="33" as="alternateBounds"/>
                    </mxGeometry>
                </mxCell>
                <mxCell id="2004" value="1" style="shape=partialRectangle;html=1;whiteSpace=wrap;connectable=0;overflow=hidden;top=1;left=1;bottom=1;right=1;pointerEvents=1;shadow=0;sketch=0;strokeWidth=1;fillColor=#d80073;strokeColor=#000000;fontSize=20;fontColor=#FFFFFF;" vertex="1" parent="1">
                    <mxGeometry x="663" y="660" width="23" height="33" as="geometry">
                        <mxRectangle width="23" height="33" as="alternateBounds"/>
                    </mxGeometry>
                </mxCell>
                <mxCell id="2005" value="1" style="shape=partialRectangle;html=1;whiteSpace=wrap;connectable=0;overflow=hidden;top=1;left=1;bottom=1;right=1;pointerEvents=1;shadow=0;sketch=0;strokeWidth=1;fillColor=#d80073;strokeColor=#000000;fontSize=20;fontColor=#FFFFFF;" vertex="1" parent="1">
                    <mxGeometry x="686" y="660" width="23" height="33" as="geometry">
                        <mxRectangle width="23" height="33" as="alternateBounds"/>
                    </mxGeometry>
                </mxCell>
                <mxCell id="2006" value="0" style="shape=partialRectangle;html=1;whiteSpace=wrap;connectable=0;overflow=hidden;top=1;left=1;bottom=1;right=1;pointerEvents=1;shadow=0;sketch=0;strokeWidth=1;fillColor=#d80073;strokeColor=#000000;fontSize=20;fontColor=#FFFFFF;" vertex="1" parent="1">
                    <mxGeometry x="709" y="660" width="21" height="33" as="geometry">
                        <mxRectangle width="21" height="33" as="alternateBounds"/>
                    </mxGeometry>
                </mxCell>
                <mxCell id="2007" value="0" style="shape=partialRectangle;html=1;whiteSpace=wrap;connectable=0;overflow=hidden;top=1;left=1;bottom=1;right=1;pointerEvents=1;shadow=0;sketch=0;strokeWidth=1;fillColor=#d80073;strokeColor=#000000;fontSize=20;fontColor=#FFFFFF;" vertex="1" parent="1">
                    <mxGeometry x="730" y="660" width="24" height="33" as="geometry">
                        <mxRectangle width="24" height="33" as="alternateBounds"/>
                    </mxGeometry>
                </mxCell>
                <mxCell id="2008" value="1" style="shape=partialRectangle;html=1;whiteSpace=wrap;connectable=0;overflow=hidden;top=1;left=1;bottom=1;right=1;pointerEvents=1;shadow=0;sketch=0;strokeWidth=1;fillColor=#d80073;strokeColor=#000000;fontSize=20;fontColor=#FFFFFF;" vertex="1" parent="1">
                    <mxGeometry x="754" y="660" width="19" height="33" as="geometry">
                        <mxRectangle width="19" height="33" as="alternateBounds"/>
                    </mxGeometry>
                </mxCell>
                <mxCell id="2009" value="1" style="shape=partialRectangle;html=1;whiteSpace=wrap;connectable=0;overflow=hidden;top=1;left=1;bottom=1;right=1;pointerEvents=1;shadow=0;sketch=0;strokeWidth=1;fillColor=#d80073;strokeColor=#000000;fontSize=20;fontColor=#FFFFFF;" vertex="1" parent="1">
                    <mxGeometry x="773" y="660" width="24" height="33" as="geometry">
                        <mxRectangle width="24" height="33" as="alternateBounds"/>
                    </mxGeometry>
                </mxCell>
                <mxCell id="2010" value="0" style="shape=partialRectangle;html=1;whiteSpace=wrap;connectable=0;overflow=hidden;top=1;left=1;bottom=1;right=1;pointerEvents=1;shadow=0;sketch=0;strokeWidth=1;fillColor=#d80073;strokeColor=#000000;fontSize=20;fontColor=#FFFFFF;" vertex="1" parent="1">
                    <mxGeometry x="797" y="660" width="22" height="33" as="geometry">
                        <mxRectangle width="22" height="33" as="alternateBounds"/>
                    </mxGeometry>
                </mxCell>
                <mxCell id="2011" value="0" style="shape=partialRectangle;html=1;whiteSpace=wrap;connectable=0;overflow=hidden;top=1;left=1;bottom=1;right=1;pointerEvents=1;shadow=0;sketch=0;strokeWidth=1;fillColor=#d80073;strokeColor=#000000;fontSize=20;fontColor=#FFFFFF;" vertex="1" parent="1">
                    <mxGeometry x="819" y="660" width="22" height="33" as="geometry">
                        <mxRectangle width="22" height="33" as="alternateBounds"/>
                    </mxGeometry>
                </mxCell>
                <mxCell id="2012" value="1" style="shape=partialRectangle;html=1;whiteSpace=wrap;connectable=0;overflow=hidden;top=1;left=1;bottom=1;right=1;pointerEvents=1;shadow=0;sketch=0;strokeWidth=1;fillColor=#d80073;strokeColor=#000000;fontSize=20;fontColor=#FFFFFF;" vertex="1" parent="1">
                    <mxGeometry x="841" y="660" width="23" height="33" as="geometry">
                        <mxRectangle width="23" height="33" as="alternateBounds"/>
                    </mxGeometry>
                </mxCell>
                <mxCell id="2013" value="1" style="shape=partialRectangle;html=1;whiteSpace=wrap;connectable=0;overflow=hidden;top=1;left=1;bottom=1;right=1;pointerEvents=1;shadow=0;sketch=0;strokeWidth=1;fillColor=#d80073;strokeColor=#000000;fontSize=20;fontColor=#FFFFFF;" vertex="1" parent="1">
                    <mxGeometry x="864" y="660" width="19" height="33" as="geometry">
                        <mxRectangle width="19" height="33" as="alternateBounds"/>
                    </mxGeometry>
                </mxCell>
                <mxCell id="2014" value="0" style="shape=partialRectangle;html=1;whiteSpace=wrap;connectable=0;overflow=hidden;top=1;left=1;bottom=1;right=1;pointerEvents=1;shadow=0;sketch=0;strokeWidth=1;fillColor=#d80073;strokeColor=#000000;fontSize=20;fontColor=#FFFFFF;" vertex="1" parent="1">
                    <mxGeometry x="883" y="660" width="24" height="33" as="geometry">
                        <mxRectangle width="24" height="33" as="alternateBounds"/>
                    </mxGeometry>
                </mxCell>
                <mxCell id="2015" value="0" style="shape=partialRectangle;html=1;whiteSpace=wrap;connectable=0;overflow=hidden;top=1;left=1;bottom=1;right=1;pointerEvents=1;shadow=0;sketch=0;strokeWidth=1;fillColor=#d80073;strokeColor=#000000;fontSize=20;fontColor=#FFFFFF;" vertex="1" parent="1">
                    <mxGeometry x="907" y="660" width="20" height="33" as="geometry">
                        <mxRectangle width="20" height="33" as="alternateBounds"/>
                    </mxGeometry>
                </mxCell>
                <mxCell id="2016" value="1" style="shape=partialRectangle;html=1;whiteSpace=wrap;connectable=0;overflow=hidden;top=1;left=1;bottom=1;right=1;pointerEvents=1;shadow=0;sketch=0;strokeWidth=1;fillColor=#d80073;strokeColor=#000000;fontSize=20;fontColor=#FFFFFF;" vertex="1" parent="1">
                    <mxGeometry x="927" y="660" width="24" height="33" as="geometry">
                        <mxRectangle width="24" height="33" as="alternateBounds"/>
                    </mxGeometry>
                </mxCell>
                <mxCell id="2017" value="1" style="shape=partialRectangle;html=1;whiteSpace=wrap;connectable=0;overflow=hidden;top=1;left=1;bottom=1;right=1;pointerEvents=1;shadow=0;sketch=0;strokeWidth=1;fillColor=#d80073;strokeColor=#000000;fontSize=20;fontColor=#FFFFFF;" vertex="1" parent="1">
                    <mxGeometry x="951" y="660" width="22" height="33" as="geometry">
                        <mxRectangle width="22" height="33" as="alternateBounds"/>
                    </mxGeometry>
                </mxCell>
                <mxCell id="2018" value="0" style="shape=partialRectangle;html=1;whiteSpace=wrap;connectable=0;overflow=hidden;top=1;left=1;bottom=1;right=1;pointerEvents=1;shadow=0;sketch=0;strokeWidth=1;fillColor=#d80073;strokeColor=#000000;fontSize=20;fontColor=#FFFFFF;" vertex="1" parent="1">
                    <mxGeometry x="973" y="660" width="21" height="33" as="geometry">
                        <mxRectangle width="21" height="33" as="alternateBounds"/>
                    </mxGeometry>
                </mxCell>
                <mxCell id="2019" value="1" style="shape=partialRectangle;html=1;whiteSpace=wrap;connectable=0;overflow=hidden;top=1;left=1;bottom=1;right=1;pointerEvents=1;shadow=0;sketch=0;strokeWidth=1;fillColor=#d80073;strokeColor=#000000;fontSize=20;fontColor=#FFFFFF;" vertex="1" parent="1">
                    <mxGeometry x="994" y="660" width="23" height="33" as="geometry">
                        <mxRectangle width="23" height="33" as="alternateBounds"/>
                    </mxGeometry>
                </mxCell>
                <mxCell id="2021" value="寄存器&amp;nbsp;&lt;br&gt;&lt;div style=&quot;font-size: 12px;&quot;&gt;&lt;font style=&quot;font-size: 12px;&quot;&gt;寄存器内的位数通常大于浮点数的位数，舍入操作会丢失精度，所以需要计算结果尽量保留精度。&lt;/font&gt;&lt;/div&gt;&lt;font style=&quot;font-size: 12px;&quot;&gt;&lt;div style=&quot;&quot;&gt;&lt;span style=&quot;font-family: &amp;quot;Google Sans&amp;quot;, arial, sans-serif;&quot;&gt;Intel CPU浮点运算单元中浮点数据寄存器总共有8个，它们都是80位&lt;/span&gt;&lt;span style=&quot;font-family: &amp;quot;Google Sans&amp;quot;, arial, sans-serif;&quot;&gt;，即10字节的寄存器&lt;/span&gt;&lt;/div&gt;&lt;/font&gt;" style="text;strokeColor=none;fillColor=none;html=1;fontSize=24;fontStyle=1;verticalAlign=middle;align=left;fontColor=#000000;" vertex="1" parent="1">
                    <mxGeometry x="288" y="783" width="210" height="80" as="geometry"/>
                </mxCell>
                <mxCell id="2022" value="" style="shape=table;startSize=0;container=1;collapsible=0;childLayout=tableLayout;shadow=0;sketch=0;strokeWidth=1;fontSize=20;swimlaneFillColor=none;strokeColor=none;fillColor=none;fontColor=#000000;" vertex="1" parent="1">
                    <mxGeometry x="290" y="890" width="529" height="33" as="geometry"/>
                </mxCell>
                <mxCell id="2023" value="" style="shape=tableRow;horizontal=0;startSize=0;swimlaneHead=0;swimlaneBody=0;top=0;left=0;bottom=0;right=0;collapsible=0;dropTarget=0;fillColor=none;points=[[0,0.5],[1,0.5]];portConstraint=eastwest;shadow=0;sketch=0;strokeColor=#A50040;strokeWidth=1;fontSize=20;fontColor=#000000;" vertex="1" parent="2022">
                    <mxGeometry width="529" height="33" as="geometry"/>
                </mxCell>
                <mxCell id="2057" value="1" style="shape=partialRectangle;html=1;whiteSpace=wrap;connectable=0;overflow=hidden;top=1;left=1;bottom=1;right=1;pointerEvents=1;shadow=0;sketch=0;strokeWidth=1;fillColor=#a20025;strokeColor=#000000;fontSize=20;fontColor=#FFFFFF;" vertex="1" parent="2023">
                    <mxGeometry width="21" height="33" as="geometry">
                        <mxRectangle width="21" height="33" as="alternateBounds"/>
                    </mxGeometry>
                </mxCell>
                <mxCell id="2033" value="1" style="shape=partialRectangle;html=1;whiteSpace=wrap;connectable=0;overflow=hidden;top=1;left=1;bottom=1;right=1;pointerEvents=1;shadow=0;sketch=0;strokeWidth=1;fillColor=#d80073;strokeColor=#000000;fontSize=20;fontColor=#FFFFFF;" vertex="1" parent="2023">
                    <mxGeometry x="21" width="21" height="33" as="geometry">
                        <mxRectangle width="21" height="33" as="alternateBounds"/>
                    </mxGeometry>
                </mxCell>
                <mxCell id="2034" value="0" style="shape=partialRectangle;html=1;whiteSpace=wrap;connectable=0;overflow=hidden;top=1;left=1;bottom=1;right=1;pointerEvents=1;shadow=0;sketch=0;strokeWidth=1;fillColor=#d80073;strokeColor=#000000;fontSize=20;fontColor=#FFFFFF;" vertex="1" parent="2023">
                    <mxGeometry x="42" width="23" height="33" as="geometry">
                        <mxRectangle width="23" height="33" as="alternateBounds"/>
                    </mxGeometry>
                </mxCell>
                <mxCell id="2035" value="0" style="shape=partialRectangle;html=1;whiteSpace=wrap;connectable=0;overflow=hidden;top=1;left=1;bottom=1;right=1;pointerEvents=1;shadow=0;sketch=0;strokeWidth=1;fillColor=#d80073;strokeColor=#000000;fontSize=20;fontColor=#FFFFFF;" vertex="1" parent="2023">
                    <mxGeometry x="65" width="21" height="33" as="geometry">
                        <mxRectangle width="21" height="33" as="alternateBounds"/>
                    </mxGeometry>
                </mxCell>
                <mxCell id="2036" value="1" style="shape=partialRectangle;html=1;whiteSpace=wrap;connectable=0;overflow=hidden;top=1;left=1;bottom=1;right=1;pointerEvents=1;shadow=0;sketch=0;strokeWidth=1;fillColor=#d80073;strokeColor=#000000;fontSize=20;fontColor=#FFFFFF;" vertex="1" parent="2023">
                    <mxGeometry x="86" width="24" height="33" as="geometry">
                        <mxRectangle width="24" height="33" as="alternateBounds"/>
                    </mxGeometry>
                </mxCell>
                <mxCell id="2037" value="1" style="shape=partialRectangle;html=1;whiteSpace=wrap;connectable=0;overflow=hidden;top=1;left=1;bottom=1;right=1;pointerEvents=1;shadow=0;sketch=0;strokeWidth=1;fillColor=#d80073;strokeColor=#000000;fontSize=20;fontColor=#FFFFFF;" vertex="1" parent="2023">
                    <mxGeometry x="110" width="20" height="33" as="geometry">
                        <mxRectangle width="20" height="33" as="alternateBounds"/>
                    </mxGeometry>
                </mxCell>
                <mxCell id="2038" value="0" style="shape=partialRectangle;html=1;whiteSpace=wrap;connectable=0;overflow=hidden;top=1;left=1;bottom=1;right=1;pointerEvents=1;shadow=0;sketch=0;strokeWidth=1;fillColor=#d80073;strokeColor=#000000;fontSize=20;fontColor=#FFFFFF;" vertex="1" parent="2023">
                    <mxGeometry x="130" width="23" height="33" as="geometry">
                        <mxRectangle width="23" height="33" as="alternateBounds"/>
                    </mxGeometry>
                </mxCell>
                <mxCell id="2039" value="0" style="shape=partialRectangle;html=1;whiteSpace=wrap;connectable=0;overflow=hidden;top=1;left=1;bottom=1;right=1;pointerEvents=1;shadow=0;sketch=0;strokeWidth=1;fillColor=#d80073;strokeColor=#000000;fontSize=20;fontColor=#FFFFFF;" vertex="1" parent="2023">
                    <mxGeometry x="153" width="22" height="33" as="geometry">
                        <mxRectangle width="22" height="33" as="alternateBounds"/>
                    </mxGeometry>
                </mxCell>
                <mxCell id="2040" value="1" style="shape=partialRectangle;html=1;whiteSpace=wrap;connectable=0;overflow=hidden;top=1;left=1;bottom=1;right=1;pointerEvents=1;shadow=0;sketch=0;strokeWidth=1;fillColor=#d80073;strokeColor=#000000;fontSize=20;fontColor=#FFFFFF;" vertex="1" parent="2023">
                    <mxGeometry x="175" width="23" height="33" as="geometry">
                        <mxRectangle width="23" height="33" as="alternateBounds"/>
                    </mxGeometry>
                </mxCell>
                <mxCell id="2041" value="1" style="shape=partialRectangle;html=1;whiteSpace=wrap;connectable=0;overflow=hidden;top=1;left=1;bottom=1;right=1;pointerEvents=1;shadow=0;sketch=0;strokeWidth=1;fillColor=#d80073;strokeColor=#000000;fontSize=20;fontColor=#FFFFFF;" vertex="1" parent="2023">
                    <mxGeometry x="198" width="23" height="33" as="geometry">
                        <mxRectangle width="23" height="33" as="alternateBounds"/>
                    </mxGeometry>
                </mxCell>
                <mxCell id="2042" value="0" style="shape=partialRectangle;html=1;whiteSpace=wrap;connectable=0;overflow=hidden;top=1;left=1;bottom=1;right=1;pointerEvents=1;shadow=0;sketch=0;strokeWidth=1;fillColor=#d80073;strokeColor=#000000;fontSize=20;fontColor=#FFFFFF;" vertex="1" parent="2023">
                    <mxGeometry x="221" width="21" height="33" as="geometry">
                        <mxRectangle width="21" height="33" as="alternateBounds"/>
                    </mxGeometry>
                </mxCell>
                <mxCell id="2043" value="0" style="shape=partialRectangle;html=1;whiteSpace=wrap;connectable=0;overflow=hidden;top=1;left=1;bottom=1;right=1;pointerEvents=1;shadow=0;sketch=0;strokeWidth=1;fillColor=#d80073;strokeColor=#000000;fontSize=20;fontColor=#FFFFFF;" vertex="1" parent="2023">
                    <mxGeometry x="242" width="24" height="33" as="geometry">
                        <mxRectangle width="24" height="33" as="alternateBounds"/>
                    </mxGeometry>
                </mxCell>
                <mxCell id="2044" value="1" style="shape=partialRectangle;html=1;whiteSpace=wrap;connectable=0;overflow=hidden;top=1;left=1;bottom=1;right=1;pointerEvents=1;shadow=0;sketch=0;strokeWidth=1;fillColor=#d80073;strokeColor=#000000;fontSize=20;fontColor=#FFFFFF;" vertex="1" parent="2023">
                    <mxGeometry x="266" width="19" height="33" as="geometry">
                        <mxRectangle width="19" height="33" as="alternateBounds"/>
                    </mxGeometry>
                </mxCell>
                <mxCell id="2045" value="1" style="shape=partialRectangle;html=1;whiteSpace=wrap;connectable=0;overflow=hidden;top=1;left=1;bottom=1;right=1;pointerEvents=1;shadow=0;sketch=0;strokeWidth=1;fillColor=#d80073;strokeColor=#000000;fontSize=20;fontColor=#FFFFFF;" vertex="1" parent="2023">
                    <mxGeometry x="285" width="24" height="33" as="geometry">
                        <mxRectangle width="24" height="33" as="alternateBounds"/>
                    </mxGeometry>
                </mxCell>
                <mxCell id="2046" value="0" style="shape=partialRectangle;html=1;whiteSpace=wrap;connectable=0;overflow=hidden;top=1;left=1;bottom=1;right=1;pointerEvents=1;shadow=0;sketch=0;strokeWidth=1;fillColor=#d80073;strokeColor=#000000;fontSize=20;fontColor=#FFFFFF;" vertex="1" parent="2023">
                    <mxGeometry x="309" width="22" height="33" as="geometry">
                        <mxRectangle width="22" height="33" as="alternateBounds"/>
                    </mxGeometry>
                </mxCell>
                <mxCell id="2047" value="0" style="shape=partialRectangle;html=1;whiteSpace=wrap;connectable=0;overflow=hidden;top=1;left=1;bottom=1;right=1;pointerEvents=1;shadow=0;sketch=0;strokeWidth=1;fillColor=#d80073;strokeColor=#000000;fontSize=20;fontColor=#FFFFFF;" vertex="1" parent="2023">
                    <mxGeometry x="331" width="22" height="33" as="geometry">
                        <mxRectangle width="22" height="33" as="alternateBounds"/>
                    </mxGeometry>
                </mxCell>
                <mxCell id="2048" value="1" style="shape=partialRectangle;html=1;whiteSpace=wrap;connectable=0;overflow=hidden;top=1;left=1;bottom=1;right=1;pointerEvents=1;shadow=0;sketch=0;strokeWidth=1;fillColor=#d80073;strokeColor=#000000;fontSize=20;fontColor=#FFFFFF;" vertex="1" parent="2023">
                    <mxGeometry x="353" width="23" height="33" as="geometry">
                        <mxRectangle width="23" height="33" as="alternateBounds"/>
                    </mxGeometry>
                </mxCell>
                <mxCell id="2049" value="1" style="shape=partialRectangle;html=1;whiteSpace=wrap;connectable=0;overflow=hidden;top=1;left=1;bottom=1;right=1;pointerEvents=1;shadow=0;sketch=0;strokeWidth=1;fillColor=#d80073;strokeColor=#000000;fontSize=20;fontColor=#FFFFFF;" vertex="1" parent="2023">
                    <mxGeometry x="376" width="19" height="33" as="geometry">
                        <mxRectangle width="19" height="33" as="alternateBounds"/>
                    </mxGeometry>
                </mxCell>
                <mxCell id="2050" value="0" style="shape=partialRectangle;html=1;whiteSpace=wrap;connectable=0;overflow=hidden;top=1;left=1;bottom=1;right=1;pointerEvents=1;shadow=0;sketch=0;strokeWidth=1;fillColor=#d80073;strokeColor=#000000;fontSize=20;fontColor=#FFFFFF;" vertex="1" parent="2023">
                    <mxGeometry x="395" width="24" height="33" as="geometry">
                        <mxRectangle width="24" height="33" as="alternateBounds"/>
                    </mxGeometry>
                </mxCell>
                <mxCell id="2051" value="0" style="shape=partialRectangle;html=1;whiteSpace=wrap;connectable=0;overflow=hidden;top=1;left=1;bottom=1;right=1;pointerEvents=1;shadow=0;sketch=0;strokeWidth=1;fillColor=#d80073;strokeColor=#000000;fontSize=20;fontColor=#FFFFFF;" vertex="1" parent="2023">
                    <mxGeometry x="419" width="20" height="33" as="geometry">
                        <mxRectangle width="20" height="33" as="alternateBounds"/>
                    </mxGeometry>
                </mxCell>
                <mxCell id="2052" value="1" style="shape=partialRectangle;html=1;whiteSpace=wrap;connectable=0;overflow=hidden;top=1;left=1;bottom=1;right=1;pointerEvents=1;shadow=0;sketch=0;strokeWidth=1;fillColor=#d80073;strokeColor=#000000;fontSize=20;fontColor=#FFFFFF;" vertex="1" parent="2023">
                    <mxGeometry x="439" width="24" height="33" as="geometry">
                        <mxRectangle width="24" height="33" as="alternateBounds"/>
                    </mxGeometry>
                </mxCell>
                <mxCell id="2053" value="1" style="shape=partialRectangle;html=1;whiteSpace=wrap;connectable=0;overflow=hidden;top=1;left=1;bottom=1;right=1;pointerEvents=1;shadow=0;sketch=0;strokeWidth=1;fillColor=#d80073;strokeColor=#000000;fontSize=20;fontColor=#FFFFFF;" vertex="1" parent="2023">
                    <mxGeometry x="463" width="22" height="33" as="geometry">
                        <mxRectangle width="22" height="33" as="alternateBounds"/>
                    </mxGeometry>
                </mxCell>
                <mxCell id="2054" value="0" style="shape=partialRectangle;html=1;whiteSpace=wrap;connectable=0;overflow=hidden;top=1;left=1;bottom=1;right=1;pointerEvents=1;shadow=0;sketch=0;strokeWidth=1;fillColor=#d80073;strokeColor=#000000;fontSize=20;fontColor=#FFFFFF;" vertex="1" parent="2023">
                    <mxGeometry x="485" width="21" height="33" as="geometry">
                        <mxRectangle width="21" height="33" as="alternateBounds"/>
                    </mxGeometry>
                </mxCell>
                <mxCell id="2055" value="1" style="shape=partialRectangle;html=1;whiteSpace=wrap;connectable=0;overflow=hidden;top=1;left=1;bottom=1;right=1;pointerEvents=1;shadow=0;sketch=0;strokeWidth=1;fillColor=#d80073;strokeColor=#000000;fontSize=20;fontColor=#FFFFFF;" vertex="1" parent="2023">
                    <mxGeometry x="506" width="23" height="33" as="geometry">
                        <mxRectangle width="23" height="33" as="alternateBounds"/>
                    </mxGeometry>
                </mxCell>
                <mxCell id="2056" value="寄存器内0.1的尾数&lt;br&gt;（需要补上首位1）" style="text;strokeColor=none;fillColor=none;html=1;fontSize=12;fontStyle=0;verticalAlign=middle;align=right;fontColor=#000000;" vertex="1" parent="1">
                    <mxGeometry x="70" y="878" width="210" height="57" as="geometry"/>
                </mxCell>
                <mxCell id="2058" value="" style="shape=table;startSize=0;container=1;collapsible=0;childLayout=tableLayout;shadow=0;sketch=0;strokeWidth=1;fontSize=20;swimlaneFillColor=none;strokeColor=none;fillColor=none;fontColor=#000000;" vertex="1" parent="1">
                    <mxGeometry x="288.5" y="962" width="550" height="33" as="geometry"/>
                </mxCell>
                <mxCell id="2059" value="" style="shape=tableRow;horizontal=0;startSize=0;swimlaneHead=0;swimlaneBody=0;top=0;left=0;bottom=0;right=0;collapsible=0;dropTarget=0;fillColor=none;points=[[0,0.5],[1,0.5]];portConstraint=eastwest;shadow=0;sketch=0;strokeColor=#A50040;strokeWidth=1;fontSize=20;fontColor=#000000;" vertex="1" parent="2058">
                    <mxGeometry width="550" height="33" as="geometry"/>
                </mxCell>
                <mxCell id="2085" value="0" style="shape=partialRectangle;html=1;whiteSpace=wrap;connectable=0;overflow=hidden;top=1;left=1;bottom=1;right=1;pointerEvents=1;shadow=0;sketch=0;strokeWidth=1;fillColor=#a20025;strokeColor=#000000;fontSize=20;fontColor=#FFFFFF;" vertex="1" parent="2059">
                    <mxGeometry width="21" height="33" as="geometry">
                        <mxRectangle width="21" height="33" as="alternateBounds"/>
                    </mxGeometry>
                </mxCell>
                <mxCell id="2060" value="1" style="shape=partialRectangle;html=1;whiteSpace=wrap;connectable=0;overflow=hidden;top=1;left=1;bottom=1;right=1;pointerEvents=1;shadow=0;sketch=0;strokeWidth=1;fillColor=#d80073;strokeColor=#000000;fontSize=20;fontColor=#FFFFFF;" vertex="1" parent="2059">
                    <mxGeometry x="21" width="21" height="33" as="geometry">
                        <mxRectangle width="21" height="33" as="alternateBounds"/>
                    </mxGeometry>
                </mxCell>
                <mxCell id="2061" value="1" style="shape=partialRectangle;html=1;whiteSpace=wrap;connectable=0;overflow=hidden;top=1;left=1;bottom=1;right=1;pointerEvents=1;shadow=0;sketch=0;strokeWidth=1;fillColor=#d80073;strokeColor=#000000;fontSize=20;fontColor=#FFFFFF;" vertex="1" parent="2059">
                    <mxGeometry x="42" width="21" height="33" as="geometry">
                        <mxRectangle width="21" height="33" as="alternateBounds"/>
                    </mxGeometry>
                </mxCell>
                <mxCell id="2062" value="0" style="shape=partialRectangle;html=1;whiteSpace=wrap;connectable=0;overflow=hidden;top=1;left=1;bottom=1;right=1;pointerEvents=1;shadow=0;sketch=0;strokeWidth=1;fillColor=#d80073;strokeColor=#000000;fontSize=20;fontColor=#FFFFFF;" vertex="1" parent="2059">
                    <mxGeometry x="63" width="23" height="33" as="geometry">
                        <mxRectangle width="23" height="33" as="alternateBounds"/>
                    </mxGeometry>
                </mxCell>
                <mxCell id="2063" value="0" style="shape=partialRectangle;html=1;whiteSpace=wrap;connectable=0;overflow=hidden;top=1;left=1;bottom=1;right=1;pointerEvents=1;shadow=0;sketch=0;strokeWidth=1;fillColor=#d80073;strokeColor=#000000;fontSize=20;fontColor=#FFFFFF;" vertex="1" parent="2059">
                    <mxGeometry x="86" width="21" height="33" as="geometry">
                        <mxRectangle width="21" height="33" as="alternateBounds"/>
                    </mxGeometry>
                </mxCell>
                <mxCell id="2064" value="1" style="shape=partialRectangle;html=1;whiteSpace=wrap;connectable=0;overflow=hidden;top=1;left=1;bottom=1;right=1;pointerEvents=1;shadow=0;sketch=0;strokeWidth=1;fillColor=#d80073;strokeColor=#000000;fontSize=20;fontColor=#FFFFFF;" vertex="1" parent="2059">
                    <mxGeometry x="107" width="24" height="33" as="geometry">
                        <mxRectangle width="24" height="33" as="alternateBounds"/>
                    </mxGeometry>
                </mxCell>
                <mxCell id="2065" value="1" style="shape=partialRectangle;html=1;whiteSpace=wrap;connectable=0;overflow=hidden;top=1;left=1;bottom=1;right=1;pointerEvents=1;shadow=0;sketch=0;strokeWidth=1;fillColor=#d80073;strokeColor=#000000;fontSize=20;fontColor=#FFFFFF;" vertex="1" parent="2059">
                    <mxGeometry x="131" width="20" height="33" as="geometry">
                        <mxRectangle width="20" height="33" as="alternateBounds"/>
                    </mxGeometry>
                </mxCell>
                <mxCell id="2066" value="0" style="shape=partialRectangle;html=1;whiteSpace=wrap;connectable=0;overflow=hidden;top=1;left=1;bottom=1;right=1;pointerEvents=1;shadow=0;sketch=0;strokeWidth=1;fillColor=#d80073;strokeColor=#000000;fontSize=20;fontColor=#FFFFFF;" vertex="1" parent="2059">
                    <mxGeometry x="151" width="23" height="33" as="geometry">
                        <mxRectangle width="23" height="33" as="alternateBounds"/>
                    </mxGeometry>
                </mxCell>
                <mxCell id="2067" value="0" style="shape=partialRectangle;html=1;whiteSpace=wrap;connectable=0;overflow=hidden;top=1;left=1;bottom=1;right=1;pointerEvents=1;shadow=0;sketch=0;strokeWidth=1;fillColor=#d80073;strokeColor=#000000;fontSize=20;fontColor=#FFFFFF;" vertex="1" parent="2059">
                    <mxGeometry x="174" width="22" height="33" as="geometry">
                        <mxRectangle width="22" height="33" as="alternateBounds"/>
                    </mxGeometry>
                </mxCell>
                <mxCell id="2068" value="1" style="shape=partialRectangle;html=1;whiteSpace=wrap;connectable=0;overflow=hidden;top=1;left=1;bottom=1;right=1;pointerEvents=1;shadow=0;sketch=0;strokeWidth=1;fillColor=#d80073;strokeColor=#000000;fontSize=20;fontColor=#FFFFFF;" vertex="1" parent="2059">
                    <mxGeometry x="196" width="23" height="33" as="geometry">
                        <mxRectangle width="23" height="33" as="alternateBounds"/>
                    </mxGeometry>
                </mxCell>
                <mxCell id="2069" value="1" style="shape=partialRectangle;html=1;whiteSpace=wrap;connectable=0;overflow=hidden;top=1;left=1;bottom=1;right=1;pointerEvents=1;shadow=0;sketch=0;strokeWidth=1;fillColor=#d80073;strokeColor=#000000;fontSize=20;fontColor=#FFFFFF;" vertex="1" parent="2059">
                    <mxGeometry x="219" width="23" height="33" as="geometry">
                        <mxRectangle width="23" height="33" as="alternateBounds"/>
                    </mxGeometry>
                </mxCell>
                <mxCell id="2070" value="0" style="shape=partialRectangle;html=1;whiteSpace=wrap;connectable=0;overflow=hidden;top=1;left=1;bottom=1;right=1;pointerEvents=1;shadow=0;sketch=0;strokeWidth=1;fillColor=#d80073;strokeColor=#000000;fontSize=20;fontColor=#FFFFFF;" vertex="1" parent="2059">
                    <mxGeometry x="242" width="21" height="33" as="geometry">
                        <mxRectangle width="21" height="33" as="alternateBounds"/>
                    </mxGeometry>
                </mxCell>
                <mxCell id="2071" value="0" style="shape=partialRectangle;html=1;whiteSpace=wrap;connectable=0;overflow=hidden;top=1;left=1;bottom=1;right=1;pointerEvents=1;shadow=0;sketch=0;strokeWidth=1;fillColor=#d80073;strokeColor=#000000;fontSize=20;fontColor=#FFFFFF;" vertex="1" parent="2059">
                    <mxGeometry x="263" width="24" height="33" as="geometry">
                        <mxRectangle width="24" height="33" as="alternateBounds"/>
                    </mxGeometry>
                </mxCell>
                <mxCell id="2072" value="1" style="shape=partialRectangle;html=1;whiteSpace=wrap;connectable=0;overflow=hidden;top=1;left=1;bottom=1;right=1;pointerEvents=1;shadow=0;sketch=0;strokeWidth=1;fillColor=#d80073;strokeColor=#000000;fontSize=20;fontColor=#FFFFFF;" vertex="1" parent="2059">
                    <mxGeometry x="287" width="19" height="33" as="geometry">
                        <mxRectangle width="19" height="33" as="alternateBounds"/>
                    </mxGeometry>
                </mxCell>
                <mxCell id="2073" value="1" style="shape=partialRectangle;html=1;whiteSpace=wrap;connectable=0;overflow=hidden;top=1;left=1;bottom=1;right=1;pointerEvents=1;shadow=0;sketch=0;strokeWidth=1;fillColor=#d80073;strokeColor=#000000;fontSize=20;fontColor=#FFFFFF;" vertex="1" parent="2059">
                    <mxGeometry x="306" width="24" height="33" as="geometry">
                        <mxRectangle width="24" height="33" as="alternateBounds"/>
                    </mxGeometry>
                </mxCell>
                <mxCell id="2074" value="0" style="shape=partialRectangle;html=1;whiteSpace=wrap;connectable=0;overflow=hidden;top=1;left=1;bottom=1;right=1;pointerEvents=1;shadow=0;sketch=0;strokeWidth=1;fillColor=#d80073;strokeColor=#000000;fontSize=20;fontColor=#FFFFFF;" vertex="1" parent="2059">
                    <mxGeometry x="330" width="22" height="33" as="geometry">
                        <mxRectangle width="22" height="33" as="alternateBounds"/>
                    </mxGeometry>
                </mxCell>
                <mxCell id="2075" value="0" style="shape=partialRectangle;html=1;whiteSpace=wrap;connectable=0;overflow=hidden;top=1;left=1;bottom=1;right=1;pointerEvents=1;shadow=0;sketch=0;strokeWidth=1;fillColor=#d80073;strokeColor=#000000;fontSize=20;fontColor=#FFFFFF;" vertex="1" parent="2059">
                    <mxGeometry x="352" width="22" height="33" as="geometry">
                        <mxRectangle width="22" height="33" as="alternateBounds"/>
                    </mxGeometry>
                </mxCell>
                <mxCell id="2076" value="1" style="shape=partialRectangle;html=1;whiteSpace=wrap;connectable=0;overflow=hidden;top=1;left=1;bottom=1;right=1;pointerEvents=1;shadow=0;sketch=0;strokeWidth=1;fillColor=#d80073;strokeColor=#000000;fontSize=20;fontColor=#FFFFFF;" vertex="1" parent="2059">
                    <mxGeometry x="374" width="23" height="33" as="geometry">
                        <mxRectangle width="23" height="33" as="alternateBounds"/>
                    </mxGeometry>
                </mxCell>
                <mxCell id="2077" value="1" style="shape=partialRectangle;html=1;whiteSpace=wrap;connectable=0;overflow=hidden;top=1;left=1;bottom=1;right=1;pointerEvents=1;shadow=0;sketch=0;strokeWidth=1;fillColor=#d80073;strokeColor=#000000;fontSize=20;fontColor=#FFFFFF;" vertex="1" parent="2059">
                    <mxGeometry x="397" width="19" height="33" as="geometry">
                        <mxRectangle width="19" height="33" as="alternateBounds"/>
                    </mxGeometry>
                </mxCell>
                <mxCell id="2078" value="0" style="shape=partialRectangle;html=1;whiteSpace=wrap;connectable=0;overflow=hidden;top=1;left=1;bottom=1;right=1;pointerEvents=1;shadow=0;sketch=0;strokeWidth=1;fillColor=#d80073;strokeColor=#000000;fontSize=20;fontColor=#FFFFFF;" vertex="1" parent="2059">
                    <mxGeometry x="416" width="24" height="33" as="geometry">
                        <mxRectangle width="24" height="33" as="alternateBounds"/>
                    </mxGeometry>
                </mxCell>
                <mxCell id="2079" value="0" style="shape=partialRectangle;html=1;whiteSpace=wrap;connectable=0;overflow=hidden;top=1;left=1;bottom=1;right=1;pointerEvents=1;shadow=0;sketch=0;strokeWidth=1;fillColor=#d80073;strokeColor=#000000;fontSize=20;fontColor=#FFFFFF;" vertex="1" parent="2059">
                    <mxGeometry x="440" width="20" height="33" as="geometry">
                        <mxRectangle width="20" height="33" as="alternateBounds"/>
                    </mxGeometry>
                </mxCell>
                <mxCell id="2080" value="1" style="shape=partialRectangle;html=1;whiteSpace=wrap;connectable=0;overflow=hidden;top=1;left=1;bottom=1;right=1;pointerEvents=1;shadow=0;sketch=0;strokeWidth=1;fillColor=#d80073;strokeColor=#000000;fontSize=20;fontColor=#FFFFFF;" vertex="1" parent="2059">
                    <mxGeometry x="460" width="24" height="33" as="geometry">
                        <mxRectangle width="24" height="33" as="alternateBounds"/>
                    </mxGeometry>
                </mxCell>
                <mxCell id="2081" value="1" style="shape=partialRectangle;html=1;whiteSpace=wrap;connectable=0;overflow=hidden;top=1;left=1;bottom=1;right=1;pointerEvents=1;shadow=0;sketch=0;strokeWidth=1;fillColor=#d80073;strokeColor=#000000;fontSize=20;fontColor=#FFFFFF;" vertex="1" parent="2059">
                    <mxGeometry x="484" width="22" height="33" as="geometry">
                        <mxRectangle width="22" height="33" as="alternateBounds"/>
                    </mxGeometry>
                </mxCell>
                <mxCell id="2082" value="0" style="shape=partialRectangle;html=1;whiteSpace=wrap;connectable=0;overflow=hidden;top=1;left=1;bottom=1;right=1;pointerEvents=1;shadow=0;sketch=0;strokeWidth=1;fillColor=#d80073;strokeColor=#000000;fontSize=20;fontColor=#FFFFFF;" vertex="1" parent="2059">
                    <mxGeometry x="506" width="21" height="33" as="geometry">
                        <mxRectangle width="21" height="33" as="alternateBounds"/>
                    </mxGeometry>
                </mxCell>
                <mxCell id="2083" value="1" style="shape=partialRectangle;html=1;whiteSpace=wrap;connectable=0;overflow=hidden;top=1;left=1;bottom=1;right=1;pointerEvents=1;shadow=0;sketch=0;strokeWidth=1;fillColor=#d80073;strokeColor=#000000;fontSize=20;fontColor=#FFFFFF;" vertex="1" parent="2059">
                    <mxGeometry x="527" width="23" height="33" as="geometry">
                        <mxRectangle width="23" height="33" as="alternateBounds"/>
                    </mxGeometry>
                </mxCell>
                <mxCell id="2084" value="寄存器内0.2的尾数&lt;br&gt;（经过偏移，首位为0）" style="text;strokeColor=none;fillColor=none;html=1;fontSize=12;fontStyle=0;verticalAlign=middle;align=right;fontColor=#000000;" vertex="1" parent="1">
                    <mxGeometry x="70" y="950" width="210" height="57" as="geometry"/>
                </mxCell>
                <mxCell id="2086" value="" style="endArrow=none;html=1;fontSize=12;fontColor=#000000;labelBackgroundColor=default;strokeColor=#000000;" edge="1" parent="1">
                    <mxGeometry width="50" height="50" relative="1" as="geometry">
                        <mxPoint x="119.5" y="1030" as="sourcePoint"/>
                        <mxPoint x="989.5" y="1030" as="targetPoint"/>
                    </mxGeometry>
                </mxCell>
                <mxCell id="2088" value="加法器运算" style="edgeLabel;html=1;align=center;verticalAlign=middle;resizable=0;points=[];fontSize=17;fontStyle=1;fontColor=#000000;labelBackgroundColor=none;" vertex="1" connectable="0" parent="2086">
                    <mxGeometry x="-0.0613" y="-3" relative="1" as="geometry">
                        <mxPoint x="-1" y="-15" as="offset"/>
                    </mxGeometry>
                </mxCell>
                <mxCell id="2089" value="" style="shape=table;startSize=0;container=1;collapsible=0;childLayout=tableLayout;shadow=0;sketch=0;strokeWidth=1;fontSize=20;swimlaneFillColor=none;strokeColor=none;fillColor=none;fontColor=#000000;" vertex="1" parent="1">
                    <mxGeometry x="267" y="1060" width="571" height="33" as="geometry"/>
                </mxCell>
                <mxCell id="2090" value="" style="shape=tableRow;horizontal=0;startSize=0;swimlaneHead=0;swimlaneBody=0;top=0;left=0;bottom=0;right=0;collapsible=0;dropTarget=0;fillColor=none;points=[[0,0.5],[1,0.5]];portConstraint=eastwest;shadow=0;sketch=0;strokeColor=#A50040;strokeWidth=1;fontSize=20;fontColor=#000000;" vertex="1" parent="2089">
                    <mxGeometry width="571" height="33" as="geometry"/>
                </mxCell>
                <mxCell id="2116" value="1" style="shape=partialRectangle;html=1;whiteSpace=wrap;connectable=0;overflow=hidden;top=1;left=1;bottom=1;right=1;pointerEvents=1;shadow=0;sketch=0;strokeWidth=1;fillColor=#a20025;strokeColor=#000000;fontSize=20;fontColor=#FFFFFF;" vertex="1" parent="2090">
                    <mxGeometry width="21" height="33" as="geometry">
                        <mxRectangle width="21" height="33" as="alternateBounds"/>
                    </mxGeometry>
                </mxCell>
                <mxCell id="2091" value="0" style="shape=partialRectangle;html=1;whiteSpace=wrap;connectable=0;overflow=hidden;top=1;left=1;bottom=1;right=1;pointerEvents=1;shadow=0;sketch=0;strokeWidth=1;fillColor=#a20025;strokeColor=#000000;fontSize=20;fontColor=#FFFFFF;" vertex="1" parent="2090">
                    <mxGeometry x="21" width="21" height="33" as="geometry">
                        <mxRectangle width="21" height="33" as="alternateBounds"/>
                    </mxGeometry>
                </mxCell>
                <mxCell id="2092" value="0" style="shape=partialRectangle;html=1;whiteSpace=wrap;connectable=0;overflow=hidden;top=1;left=1;bottom=1;right=1;pointerEvents=1;shadow=0;sketch=0;strokeWidth=1;fillColor=#d80073;strokeColor=#000000;fontSize=20;fontColor=#FFFFFF;" vertex="1" parent="2090">
                    <mxGeometry x="42" width="21" height="33" as="geometry">
                        <mxRectangle width="21" height="33" as="alternateBounds"/>
                    </mxGeometry>
                </mxCell>
                <mxCell id="2093" value="1" style="shape=partialRectangle;html=1;whiteSpace=wrap;connectable=0;overflow=hidden;top=1;left=1;bottom=1;right=1;pointerEvents=1;shadow=0;sketch=0;strokeWidth=1;fillColor=#d80073;strokeColor=#000000;fontSize=20;fontColor=#FFFFFF;" vertex="1" parent="2090">
                    <mxGeometry x="63" width="21" height="33" as="geometry">
                        <mxRectangle width="21" height="33" as="alternateBounds"/>
                    </mxGeometry>
                </mxCell>
                <mxCell id="2094" value="1" style="shape=partialRectangle;html=1;whiteSpace=wrap;connectable=0;overflow=hidden;top=1;left=1;bottom=1;right=1;pointerEvents=1;shadow=0;sketch=0;strokeWidth=1;fillColor=#d80073;strokeColor=#000000;fontSize=20;fontColor=#FFFFFF;" vertex="1" parent="2090">
                    <mxGeometry x="84" width="23" height="33" as="geometry">
                        <mxRectangle width="23" height="33" as="alternateBounds"/>
                    </mxGeometry>
                </mxCell>
                <mxCell id="2095" value="0" style="shape=partialRectangle;html=1;whiteSpace=wrap;connectable=0;overflow=hidden;top=1;left=1;bottom=1;right=1;pointerEvents=1;shadow=0;sketch=0;strokeWidth=1;fillColor=#d80073;strokeColor=#000000;fontSize=20;fontColor=#FFFFFF;" vertex="1" parent="2090">
                    <mxGeometry x="107" width="21" height="33" as="geometry">
                        <mxRectangle width="21" height="33" as="alternateBounds"/>
                    </mxGeometry>
                </mxCell>
                <mxCell id="2096" value="0" style="shape=partialRectangle;html=1;whiteSpace=wrap;connectable=0;overflow=hidden;top=1;left=1;bottom=1;right=1;pointerEvents=1;shadow=0;sketch=0;strokeWidth=1;fillColor=#d80073;strokeColor=#000000;fontSize=20;fontColor=#FFFFFF;" vertex="1" parent="2090">
                    <mxGeometry x="128" width="24" height="33" as="geometry">
                        <mxRectangle width="24" height="33" as="alternateBounds"/>
                    </mxGeometry>
                </mxCell>
                <mxCell id="2097" value="1" style="shape=partialRectangle;html=1;whiteSpace=wrap;connectable=0;overflow=hidden;top=1;left=1;bottom=1;right=1;pointerEvents=1;shadow=0;sketch=0;strokeWidth=1;fillColor=#d80073;strokeColor=#000000;fontSize=20;fontColor=#FFFFFF;" vertex="1" parent="2090">
                    <mxGeometry x="152" width="20" height="33" as="geometry">
                        <mxRectangle width="20" height="33" as="alternateBounds"/>
                    </mxGeometry>
                </mxCell>
                <mxCell id="2098" value="1" style="shape=partialRectangle;html=1;whiteSpace=wrap;connectable=0;overflow=hidden;top=1;left=1;bottom=1;right=1;pointerEvents=1;shadow=0;sketch=0;strokeWidth=1;fillColor=#d80073;strokeColor=#000000;fontSize=20;fontColor=#FFFFFF;" vertex="1" parent="2090">
                    <mxGeometry x="172" width="23" height="33" as="geometry">
                        <mxRectangle width="23" height="33" as="alternateBounds"/>
                    </mxGeometry>
                </mxCell>
                <mxCell id="2099" value="0" style="shape=partialRectangle;html=1;whiteSpace=wrap;connectable=0;overflow=hidden;top=1;left=1;bottom=1;right=1;pointerEvents=1;shadow=0;sketch=0;strokeWidth=1;fillColor=#d80073;strokeColor=#000000;fontSize=20;fontColor=#FFFFFF;" vertex="1" parent="2090">
                    <mxGeometry x="195" width="22" height="33" as="geometry">
                        <mxRectangle width="22" height="33" as="alternateBounds"/>
                    </mxGeometry>
                </mxCell>
                <mxCell id="2100" value="0" style="shape=partialRectangle;html=1;whiteSpace=wrap;connectable=0;overflow=hidden;top=1;left=1;bottom=1;right=1;pointerEvents=1;shadow=0;sketch=0;strokeWidth=1;fillColor=#d80073;strokeColor=#000000;fontSize=20;fontColor=#FFFFFF;" vertex="1" parent="2090">
                    <mxGeometry x="217" width="23" height="33" as="geometry">
                        <mxRectangle width="23" height="33" as="alternateBounds"/>
                    </mxGeometry>
                </mxCell>
                <mxCell id="2101" value="1" style="shape=partialRectangle;html=1;whiteSpace=wrap;connectable=0;overflow=hidden;top=1;left=1;bottom=1;right=1;pointerEvents=1;shadow=0;sketch=0;strokeWidth=1;fillColor=#d80073;strokeColor=#000000;fontSize=20;fontColor=#FFFFFF;" vertex="1" parent="2090">
                    <mxGeometry x="240" width="23" height="33" as="geometry">
                        <mxRectangle width="23" height="33" as="alternateBounds"/>
                    </mxGeometry>
                </mxCell>
                <mxCell id="2102" value="1" style="shape=partialRectangle;html=1;whiteSpace=wrap;connectable=0;overflow=hidden;top=1;left=1;bottom=1;right=1;pointerEvents=1;shadow=0;sketch=0;strokeWidth=1;fillColor=#d80073;strokeColor=#000000;fontSize=20;fontColor=#FFFFFF;" vertex="1" parent="2090">
                    <mxGeometry x="263" width="21" height="33" as="geometry">
                        <mxRectangle width="21" height="33" as="alternateBounds"/>
                    </mxGeometry>
                </mxCell>
                <mxCell id="2103" value="0" style="shape=partialRectangle;html=1;whiteSpace=wrap;connectable=0;overflow=hidden;top=1;left=1;bottom=1;right=1;pointerEvents=1;shadow=0;sketch=0;strokeWidth=1;fillColor=#d80073;strokeColor=#000000;fontSize=20;fontColor=#FFFFFF;" vertex="1" parent="2090">
                    <mxGeometry x="284" width="24" height="33" as="geometry">
                        <mxRectangle width="24" height="33" as="alternateBounds"/>
                    </mxGeometry>
                </mxCell>
                <mxCell id="2104" value="0" style="shape=partialRectangle;html=1;whiteSpace=wrap;connectable=0;overflow=hidden;top=1;left=1;bottom=1;right=1;pointerEvents=1;shadow=0;sketch=0;strokeWidth=1;fillColor=#d80073;strokeColor=#000000;fontSize=20;fontColor=#FFFFFF;" vertex="1" parent="2090">
                    <mxGeometry x="308" width="19" height="33" as="geometry">
                        <mxRectangle width="19" height="33" as="alternateBounds"/>
                    </mxGeometry>
                </mxCell>
                <mxCell id="2105" value="1" style="shape=partialRectangle;html=1;whiteSpace=wrap;connectable=0;overflow=hidden;top=1;left=1;bottom=1;right=1;pointerEvents=1;shadow=0;sketch=0;strokeWidth=1;fillColor=#d80073;strokeColor=#000000;fontSize=20;fontColor=#FFFFFF;" vertex="1" parent="2090">
                    <mxGeometry x="327" width="24" height="33" as="geometry">
                        <mxRectangle width="24" height="33" as="alternateBounds"/>
                    </mxGeometry>
                </mxCell>
                <mxCell id="2106" value="1" style="shape=partialRectangle;html=1;whiteSpace=wrap;connectable=0;overflow=hidden;top=1;left=1;bottom=1;right=1;pointerEvents=1;shadow=0;sketch=0;strokeWidth=1;fillColor=#d80073;strokeColor=#000000;fontSize=20;fontColor=#FFFFFF;" vertex="1" parent="2090">
                    <mxGeometry x="351" width="22" height="33" as="geometry">
                        <mxRectangle width="22" height="33" as="alternateBounds"/>
                    </mxGeometry>
                </mxCell>
                <mxCell id="2107" value="0" style="shape=partialRectangle;html=1;whiteSpace=wrap;connectable=0;overflow=hidden;top=1;left=1;bottom=1;right=1;pointerEvents=1;shadow=0;sketch=0;strokeWidth=1;fillColor=#d80073;strokeColor=#000000;fontSize=20;fontColor=#FFFFFF;" vertex="1" parent="2090">
                    <mxGeometry x="373" width="22" height="33" as="geometry">
                        <mxRectangle width="22" height="33" as="alternateBounds"/>
                    </mxGeometry>
                </mxCell>
                <mxCell id="2108" value="0" style="shape=partialRectangle;html=1;whiteSpace=wrap;connectable=0;overflow=hidden;top=1;left=1;bottom=1;right=1;pointerEvents=1;shadow=0;sketch=0;strokeWidth=1;fillColor=#d80073;strokeColor=#000000;fontSize=20;fontColor=#FFFFFF;" vertex="1" parent="2090">
                    <mxGeometry x="395" width="23" height="33" as="geometry">
                        <mxRectangle width="23" height="33" as="alternateBounds"/>
                    </mxGeometry>
                </mxCell>
                <mxCell id="2109" value="1" style="shape=partialRectangle;html=1;whiteSpace=wrap;connectable=0;overflow=hidden;top=1;left=1;bottom=1;right=1;pointerEvents=1;shadow=0;sketch=0;strokeWidth=1;fillColor=#d80073;strokeColor=#000000;fontSize=20;fontColor=#FFFFFF;" vertex="1" parent="2090">
                    <mxGeometry x="418" width="19" height="33" as="geometry">
                        <mxRectangle width="19" height="33" as="alternateBounds"/>
                    </mxGeometry>
                </mxCell>
                <mxCell id="2110" value="1" style="shape=partialRectangle;html=1;whiteSpace=wrap;connectable=0;overflow=hidden;top=1;left=1;bottom=1;right=1;pointerEvents=1;shadow=0;sketch=0;strokeWidth=1;fillColor=#d80073;strokeColor=#000000;fontSize=20;fontColor=#FFFFFF;" vertex="1" parent="2090">
                    <mxGeometry x="437" width="24" height="33" as="geometry">
                        <mxRectangle width="24" height="33" as="alternateBounds"/>
                    </mxGeometry>
                </mxCell>
                <mxCell id="2111" value="0" style="shape=partialRectangle;html=1;whiteSpace=wrap;connectable=0;overflow=hidden;top=1;left=1;bottom=1;right=1;pointerEvents=1;shadow=0;sketch=0;strokeWidth=1;fillColor=#d80073;strokeColor=#000000;fontSize=20;fontColor=#FFFFFF;" vertex="1" parent="2090">
                    <mxGeometry x="461" width="20" height="33" as="geometry">
                        <mxRectangle width="20" height="33" as="alternateBounds"/>
                    </mxGeometry>
                </mxCell>
                <mxCell id="2112" value="0" style="shape=partialRectangle;html=1;whiteSpace=wrap;connectable=0;overflow=hidden;top=1;left=1;bottom=1;right=1;pointerEvents=1;shadow=0;sketch=0;strokeWidth=1;fillColor=#d80073;strokeColor=#000000;fontSize=20;fontColor=#FFFFFF;" vertex="1" parent="2090">
                    <mxGeometry x="481" width="24" height="33" as="geometry">
                        <mxRectangle width="24" height="33" as="alternateBounds"/>
                    </mxGeometry>
                </mxCell>
                <mxCell id="2113" value="1" style="shape=partialRectangle;html=1;whiteSpace=wrap;connectable=0;overflow=hidden;top=1;left=1;bottom=1;right=1;pointerEvents=1;shadow=0;sketch=0;strokeWidth=1;fillColor=#d80073;strokeColor=#000000;fontSize=20;fontColor=#FFFFFF;" vertex="1" parent="2090">
                    <mxGeometry x="505" width="22" height="33" as="geometry">
                        <mxRectangle width="22" height="33" as="alternateBounds"/>
                    </mxGeometry>
                </mxCell>
                <mxCell id="2114" value="1" style="shape=partialRectangle;html=1;whiteSpace=wrap;connectable=0;overflow=hidden;top=1;left=1;bottom=1;right=1;pointerEvents=1;shadow=0;sketch=0;strokeWidth=1;fillColor=#d80073;strokeColor=#000000;fontSize=20;fontColor=#FFFFFF;" vertex="1" parent="2090">
                    <mxGeometry x="527" width="21" height="33" as="geometry">
                        <mxRectangle width="21" height="33" as="alternateBounds"/>
                    </mxGeometry>
                </mxCell>
                <mxCell id="2115" value="1" style="shape=partialRectangle;html=1;whiteSpace=wrap;connectable=0;overflow=hidden;top=1;left=1;bottom=1;right=1;pointerEvents=1;shadow=0;sketch=0;strokeWidth=1;fillColor=#d80073;strokeColor=#000000;fontSize=20;fontColor=#FFFFFF;" vertex="1" parent="2090">
                    <mxGeometry x="548" width="23" height="33" as="geometry">
                        <mxRectangle width="23" height="33" as="alternateBounds"/>
                    </mxGeometry>
                </mxCell>
                <mxCell id="2117" value="" style="endArrow=none;html=1;fontSize=12;fontColor=#000000;labelBackgroundColor=default;strokeColor=#000000;" edge="1" parent="1">
                    <mxGeometry width="50" height="50" relative="1" as="geometry">
                        <mxPoint x="117.5" y="1131" as="sourcePoint"/>
                        <mxPoint x="987.5" y="1131" as="targetPoint"/>
                    </mxGeometry>
                </mxCell>
                <mxCell id="2118" value="规约化" style="edgeLabel;html=1;align=center;verticalAlign=middle;resizable=0;points=[];fontSize=17;fontStyle=1;fontColor=#000000;labelBackgroundColor=none;" vertex="1" connectable="0" parent="2117">
                    <mxGeometry x="-0.0613" y="-3" relative="1" as="geometry">
                        <mxPoint x="3" y="-16" as="offset"/>
                    </mxGeometry>
                </mxCell>
                <mxCell id="2153" value="0" style="shape=partialRectangle;html=1;whiteSpace=wrap;connectable=0;overflow=hidden;top=1;left=1;bottom=1;right=1;pointerEvents=1;shadow=0;sketch=0;strokeWidth=1;fillColor=#60a917;strokeColor=#000000;fontSize=20;fontColor=#FFFFFF;perimeterSpacing=0;" vertex="1" parent="1">
                    <mxGeometry x="288" y="1160" width="22" height="33" as="geometry">
                        <mxRectangle width="22" height="33" as="alternateBounds"/>
                    </mxGeometry>
                </mxCell>
                <mxCell id="2154" value="1" style="shape=partialRectangle;html=1;whiteSpace=wrap;connectable=0;overflow=hidden;top=1;left=1;bottom=1;right=1;pointerEvents=1;shadow=0;sketch=0;strokeWidth=1;fillColor=#60a917;strokeColor=#000000;fontSize=20;fontColor=#FFFFFF;perimeterSpacing=0;" vertex="1" parent="1">
                    <mxGeometry x="310" y="1160" width="21" height="33" as="geometry">
                        <mxRectangle width="21" height="33" as="alternateBounds"/>
                    </mxGeometry>
                </mxCell>
                <mxCell id="2155" value="1" style="shape=partialRectangle;html=1;whiteSpace=wrap;connectable=0;overflow=hidden;top=1;left=1;bottom=1;right=1;pointerEvents=1;shadow=0;sketch=0;strokeWidth=1;fillColor=#60a917;strokeColor=#000000;fontSize=20;fontColor=#FFFFFF;perimeterSpacing=0;" vertex="1" parent="1">
                    <mxGeometry x="331" y="1160" width="23" height="33" as="geometry">
                        <mxRectangle width="23" height="33" as="alternateBounds"/>
                    </mxGeometry>
                </mxCell>
                <mxCell id="2156" value="1" style="shape=partialRectangle;html=1;whiteSpace=wrap;connectable=0;overflow=hidden;top=1;left=1;bottom=1;right=1;pointerEvents=1;shadow=0;sketch=0;strokeWidth=1;fillColor=#60a917;strokeColor=#000000;fontSize=20;fontColor=#FFFFFF;perimeterSpacing=0;" vertex="1" parent="1">
                    <mxGeometry x="354" y="1160" width="21" height="33" as="geometry">
                        <mxRectangle width="21" height="33" as="alternateBounds"/>
                    </mxGeometry>
                </mxCell>
                <mxCell id="2157" value="1" style="shape=partialRectangle;html=1;whiteSpace=wrap;connectable=0;overflow=hidden;top=1;left=1;bottom=1;right=1;pointerEvents=1;shadow=0;sketch=0;strokeWidth=1;fillColor=#60a917;strokeColor=#000000;fontSize=20;fontColor=#FFFFFF;perimeterSpacing=0;" vertex="1" parent="1">
                    <mxGeometry x="375" y="1160" width="24" height="33" as="geometry">
                        <mxRectangle width="24" height="33" as="alternateBounds"/>
                    </mxGeometry>
                </mxCell>
                <mxCell id="2158" value="1" style="shape=partialRectangle;html=1;whiteSpace=wrap;connectable=0;overflow=hidden;top=1;left=1;bottom=1;right=1;pointerEvents=1;shadow=0;sketch=0;strokeWidth=1;fillColor=#60a917;strokeColor=#000000;fontSize=20;fontColor=#FFFFFF;perimeterSpacing=0;" vertex="1" parent="1">
                    <mxGeometry x="399" y="1160" width="20" height="33" as="geometry">
                        <mxRectangle width="20" height="33" as="alternateBounds"/>
                    </mxGeometry>
                </mxCell>
                <mxCell id="2159" value="0" style="shape=partialRectangle;html=1;whiteSpace=wrap;connectable=0;overflow=hidden;top=1;left=1;bottom=1;right=1;pointerEvents=1;shadow=0;sketch=0;strokeWidth=1;fillColor=#60a917;strokeColor=#000000;fontSize=20;fontColor=#FFFFFF;perimeterSpacing=0;" vertex="1" parent="1">
                    <mxGeometry x="419" y="1160" width="24" height="33" as="geometry">
                        <mxRectangle width="24" height="33" as="alternateBounds"/>
                    </mxGeometry>
                </mxCell>
                <mxCell id="2160" value="1" style="shape=partialRectangle;html=1;whiteSpace=wrap;connectable=0;overflow=hidden;top=1;left=1;bottom=1;right=1;pointerEvents=1;shadow=0;sketch=0;strokeWidth=1;fillColor=#60a917;strokeColor=#000000;fontSize=20;fontColor=#FFFFFF;perimeterSpacing=0;" vertex="1" parent="1">
                    <mxGeometry x="443" y="1160" width="21" height="33" as="geometry">
                        <mxRectangle width="21" height="33" as="alternateBounds"/>
                    </mxGeometry>
                </mxCell>
                <mxCell id="2161" value="阶码+1，省略首位1" style="text;html=1;align=right;verticalAlign=middle;resizable=0;points=[];autosize=1;strokeColor=none;fillColor=none;fontSize=12;fontStyle=0;fontColor=#000000;" vertex="1" parent="1">
                    <mxGeometry x="110" y="1163" width="170" height="30" as="geometry"/>
                </mxCell>
                <mxCell id="2162" value="" style="shape=table;startSize=0;container=1;collapsible=0;childLayout=tableLayout;shadow=0;sketch=0;strokeWidth=1;fontSize=20;swimlaneFillColor=none;strokeColor=none;fillColor=none;fontColor=#FFFFFF;" vertex="1" parent="1">
                    <mxGeometry x="464" y="1160" width="550" height="33" as="geometry"/>
                </mxCell>
                <mxCell id="2163" value="" style="shape=tableRow;horizontal=0;startSize=0;swimlaneHead=0;swimlaneBody=0;top=0;left=0;bottom=0;right=0;collapsible=0;dropTarget=0;fillColor=none;points=[[0,0.5],[1,0.5]];portConstraint=eastwest;shadow=0;sketch=0;strokeColor=#000000;strokeWidth=1;fontSize=20;fontColor=#FFFFFF;" vertex="1" parent="2162">
                    <mxGeometry width="550" height="33" as="geometry"/>
                </mxCell>
                <mxCell id="2165" value="0" style="shape=partialRectangle;html=1;whiteSpace=wrap;connectable=0;overflow=hidden;top=1;left=1;bottom=1;right=1;pointerEvents=1;shadow=0;sketch=0;strokeWidth=1;fillColor=#d80073;strokeColor=#000000;fontSize=20;fontColor=#FFFFFF;" vertex="1" parent="2163">
                    <mxGeometry width="21" height="33" as="geometry">
                        <mxRectangle width="21" height="33" as="alternateBounds"/>
                    </mxGeometry>
                </mxCell>
                <mxCell id="2166" value="0" style="shape=partialRectangle;html=1;whiteSpace=wrap;connectable=0;overflow=hidden;top=1;left=1;bottom=1;right=1;pointerEvents=1;shadow=0;sketch=0;strokeWidth=1;fillColor=#d80073;strokeColor=#000000;fontSize=20;fontColor=#FFFFFF;" vertex="1" parent="2163">
                    <mxGeometry x="21" width="21" height="33" as="geometry">
                        <mxRectangle width="21" height="33" as="alternateBounds"/>
                    </mxGeometry>
                </mxCell>
                <mxCell id="2167" value="1" style="shape=partialRectangle;html=1;whiteSpace=wrap;connectable=0;overflow=hidden;top=1;left=1;bottom=1;right=1;pointerEvents=1;shadow=0;sketch=0;strokeWidth=1;fillColor=#d80073;strokeColor=#000000;fontSize=20;fontColor=#FFFFFF;" vertex="1" parent="2163">
                    <mxGeometry x="42" width="21" height="33" as="geometry">
                        <mxRectangle width="21" height="33" as="alternateBounds"/>
                    </mxGeometry>
                </mxCell>
                <mxCell id="2168" value="1" style="shape=partialRectangle;html=1;whiteSpace=wrap;connectable=0;overflow=hidden;top=1;left=1;bottom=1;right=1;pointerEvents=1;shadow=0;sketch=0;strokeWidth=1;fillColor=#d80073;strokeColor=#000000;fontSize=20;fontColor=#FFFFFF;" vertex="1" parent="2163">
                    <mxGeometry x="63" width="23" height="33" as="geometry">
                        <mxRectangle width="23" height="33" as="alternateBounds"/>
                    </mxGeometry>
                </mxCell>
                <mxCell id="2169" value="0" style="shape=partialRectangle;html=1;whiteSpace=wrap;connectable=0;overflow=hidden;top=1;left=1;bottom=1;right=1;pointerEvents=1;shadow=0;sketch=0;strokeWidth=1;fillColor=#d80073;strokeColor=#000000;fontSize=20;fontColor=#FFFFFF;" vertex="1" parent="2163">
                    <mxGeometry x="86" width="21" height="33" as="geometry">
                        <mxRectangle width="21" height="33" as="alternateBounds"/>
                    </mxGeometry>
                </mxCell>
                <mxCell id="2170" value="0" style="shape=partialRectangle;html=1;whiteSpace=wrap;connectable=0;overflow=hidden;top=1;left=1;bottom=1;right=1;pointerEvents=1;shadow=0;sketch=0;strokeWidth=1;fillColor=#d80073;strokeColor=#000000;fontSize=20;fontColor=#FFFFFF;" vertex="1" parent="2163">
                    <mxGeometry x="107" width="24" height="33" as="geometry">
                        <mxRectangle width="24" height="33" as="alternateBounds"/>
                    </mxGeometry>
                </mxCell>
                <mxCell id="2171" value="1" style="shape=partialRectangle;html=1;whiteSpace=wrap;connectable=0;overflow=hidden;top=1;left=1;bottom=1;right=1;pointerEvents=1;shadow=0;sketch=0;strokeWidth=1;fillColor=#d80073;strokeColor=#000000;fontSize=20;fontColor=#FFFFFF;" vertex="1" parent="2163">
                    <mxGeometry x="131" width="20" height="33" as="geometry">
                        <mxRectangle width="20" height="33" as="alternateBounds"/>
                    </mxGeometry>
                </mxCell>
                <mxCell id="2172" value="1" style="shape=partialRectangle;html=1;whiteSpace=wrap;connectable=0;overflow=hidden;top=1;left=1;bottom=1;right=1;pointerEvents=1;shadow=0;sketch=0;strokeWidth=1;fillColor=#d80073;strokeColor=#000000;fontSize=20;fontColor=#FFFFFF;" vertex="1" parent="2163">
                    <mxGeometry x="151" width="23" height="33" as="geometry">
                        <mxRectangle width="23" height="33" as="alternateBounds"/>
                    </mxGeometry>
                </mxCell>
                <mxCell id="2173" value="0" style="shape=partialRectangle;html=1;whiteSpace=wrap;connectable=0;overflow=hidden;top=1;left=1;bottom=1;right=1;pointerEvents=1;shadow=0;sketch=0;strokeWidth=1;fillColor=#d80073;strokeColor=#000000;fontSize=20;fontColor=#FFFFFF;" vertex="1" parent="2163">
                    <mxGeometry x="174" width="22" height="33" as="geometry">
                        <mxRectangle width="22" height="33" as="alternateBounds"/>
                    </mxGeometry>
                </mxCell>
                <mxCell id="2174" value="0" style="shape=partialRectangle;html=1;whiteSpace=wrap;connectable=0;overflow=hidden;top=1;left=1;bottom=1;right=1;pointerEvents=1;shadow=0;sketch=0;strokeWidth=1;fillColor=#d80073;strokeColor=#000000;fontSize=20;fontColor=#FFFFFF;" vertex="1" parent="2163">
                    <mxGeometry x="196" width="23" height="33" as="geometry">
                        <mxRectangle width="23" height="33" as="alternateBounds"/>
                    </mxGeometry>
                </mxCell>
                <mxCell id="2175" value="1" style="shape=partialRectangle;html=1;whiteSpace=wrap;connectable=0;overflow=hidden;top=1;left=1;bottom=1;right=1;pointerEvents=1;shadow=0;sketch=0;strokeWidth=1;fillColor=#d80073;strokeColor=#000000;fontSize=20;fontColor=#FFFFFF;" vertex="1" parent="2163">
                    <mxGeometry x="219" width="23" height="33" as="geometry">
                        <mxRectangle width="23" height="33" as="alternateBounds"/>
                    </mxGeometry>
                </mxCell>
                <mxCell id="2176" value="1" style="shape=partialRectangle;html=1;whiteSpace=wrap;connectable=0;overflow=hidden;top=1;left=1;bottom=1;right=1;pointerEvents=1;shadow=0;sketch=0;strokeWidth=1;fillColor=#d80073;strokeColor=#000000;fontSize=20;fontColor=#FFFFFF;" vertex="1" parent="2163">
                    <mxGeometry x="242" width="21" height="33" as="geometry">
                        <mxRectangle width="21" height="33" as="alternateBounds"/>
                    </mxGeometry>
                </mxCell>
                <mxCell id="2177" value="0" style="shape=partialRectangle;html=1;whiteSpace=wrap;connectable=0;overflow=hidden;top=1;left=1;bottom=1;right=1;pointerEvents=1;shadow=0;sketch=0;strokeWidth=1;fillColor=#d80073;strokeColor=#000000;fontSize=20;fontColor=#FFFFFF;" vertex="1" parent="2163">
                    <mxGeometry x="263" width="24" height="33" as="geometry">
                        <mxRectangle width="24" height="33" as="alternateBounds"/>
                    </mxGeometry>
                </mxCell>
                <mxCell id="2178" value="0" style="shape=partialRectangle;html=1;whiteSpace=wrap;connectable=0;overflow=hidden;top=1;left=1;bottom=1;right=1;pointerEvents=1;shadow=0;sketch=0;strokeWidth=1;fillColor=#d80073;strokeColor=#000000;fontSize=20;fontColor=#FFFFFF;" vertex="1" parent="2163">
                    <mxGeometry x="287" width="19" height="33" as="geometry">
                        <mxRectangle width="19" height="33" as="alternateBounds"/>
                    </mxGeometry>
                </mxCell>
                <mxCell id="2179" value="1" style="shape=partialRectangle;html=1;whiteSpace=wrap;connectable=0;overflow=hidden;top=1;left=1;bottom=1;right=1;pointerEvents=1;shadow=0;sketch=0;strokeWidth=1;fillColor=#d80073;strokeColor=#000000;fontSize=20;fontColor=#FFFFFF;" vertex="1" parent="2163">
                    <mxGeometry x="306" width="24" height="33" as="geometry">
                        <mxRectangle width="24" height="33" as="alternateBounds"/>
                    </mxGeometry>
                </mxCell>
                <mxCell id="2180" value="0" style="shape=partialRectangle;html=1;whiteSpace=wrap;connectable=0;overflow=hidden;top=1;left=1;bottom=1;right=1;pointerEvents=1;shadow=0;sketch=0;strokeWidth=1;fillColor=#d80073;strokeColor=#000000;fontSize=20;fontColor=#FFFFFF;" vertex="1" parent="2163">
                    <mxGeometry x="330" width="22" height="33" as="geometry">
                        <mxRectangle width="22" height="33" as="alternateBounds"/>
                    </mxGeometry>
                </mxCell>
                <mxCell id="2181" value="1" style="shape=partialRectangle;html=1;whiteSpace=wrap;connectable=0;overflow=hidden;top=1;left=1;bottom=1;right=1;pointerEvents=1;shadow=0;sketch=0;strokeWidth=1;fillColor=#d80073;strokeColor=#000000;fontSize=20;fontColor=#FFFFFF;" vertex="1" parent="2163">
                    <mxGeometry x="352" width="22" height="33" as="geometry">
                        <mxRectangle width="22" height="33" as="alternateBounds"/>
                    </mxGeometry>
                </mxCell>
                <mxCell id="2182" value="0" style="shape=partialRectangle;html=1;whiteSpace=wrap;connectable=0;overflow=hidden;top=1;left=1;bottom=1;right=1;pointerEvents=1;shadow=0;sketch=0;strokeWidth=1;fillColor=#d80073;strokeColor=#000000;fontSize=20;fontColor=#FFFFFF;" vertex="1" parent="2163">
                    <mxGeometry x="374" width="23" height="33" as="geometry">
                        <mxRectangle width="23" height="33" as="alternateBounds"/>
                    </mxGeometry>
                </mxCell>
                <mxCell id="2183" value="1" style="shape=partialRectangle;html=1;whiteSpace=wrap;connectable=0;overflow=hidden;top=1;left=1;bottom=1;right=1;pointerEvents=1;shadow=0;sketch=0;strokeWidth=1;fillColor=#d80073;strokeColor=#000000;fontSize=20;fontColor=#FFFFFF;" vertex="1" parent="2163">
                    <mxGeometry x="397" width="19" height="33" as="geometry">
                        <mxRectangle width="19" height="33" as="alternateBounds"/>
                    </mxGeometry>
                </mxCell>
                <mxCell id="2184" value="1" style="shape=partialRectangle;html=1;whiteSpace=wrap;connectable=0;overflow=hidden;top=1;left=1;bottom=1;right=1;pointerEvents=1;shadow=0;sketch=0;strokeWidth=1;fillColor=#d80073;strokeColor=#000000;fontSize=20;fontColor=#FFFFFF;" vertex="1" parent="2163">
                    <mxGeometry x="416" width="24" height="33" as="geometry">
                        <mxRectangle width="24" height="33" as="alternateBounds"/>
                    </mxGeometry>
                </mxCell>
                <mxCell id="2185" value="0" style="shape=partialRectangle;html=1;whiteSpace=wrap;connectable=0;overflow=hidden;top=1;left=1;bottom=1;right=1;pointerEvents=1;shadow=0;sketch=0;strokeWidth=1;fillColor=#d80073;strokeColor=#000000;fontSize=20;fontColor=#FFFFFF;" vertex="1" parent="2163">
                    <mxGeometry x="440" width="20" height="33" as="geometry">
                        <mxRectangle width="20" height="33" as="alternateBounds"/>
                    </mxGeometry>
                </mxCell>
                <mxCell id="2186" value="0" style="shape=partialRectangle;html=1;whiteSpace=wrap;connectable=0;overflow=hidden;top=1;left=1;bottom=1;right=1;pointerEvents=1;shadow=0;sketch=0;strokeWidth=1;fillColor=#d80073;strokeColor=#000000;fontSize=20;fontColor=#FFFFFF;" vertex="1" parent="2163">
                    <mxGeometry x="460" width="24" height="33" as="geometry">
                        <mxRectangle width="24" height="33" as="alternateBounds"/>
                    </mxGeometry>
                </mxCell>
                <mxCell id="2187" value="1" style="shape=partialRectangle;html=1;whiteSpace=wrap;connectable=0;overflow=hidden;top=1;left=1;bottom=1;right=1;pointerEvents=1;shadow=0;sketch=0;strokeWidth=1;fillColor=#d80073;strokeColor=#000000;fontSize=20;fontColor=#FFFFFF;" vertex="1" parent="2163">
                    <mxGeometry x="484" width="22" height="33" as="geometry">
                        <mxRectangle width="22" height="33" as="alternateBounds"/>
                    </mxGeometry>
                </mxCell>
                <mxCell id="2188" value="1" style="shape=partialRectangle;html=1;whiteSpace=wrap;connectable=0;overflow=hidden;top=1;left=1;bottom=1;right=1;pointerEvents=1;shadow=0;sketch=0;strokeWidth=1;fontSize=20;dashed=1;fontColor=#000000;strokeColor=#000000;fillColor=none;" vertex="1" parent="2163">
                    <mxGeometry x="506" width="21" height="33" as="geometry">
                        <mxRectangle width="21" height="33" as="alternateBounds"/>
                    </mxGeometry>
                </mxCell>
                <mxCell id="2189" value="1" style="shape=partialRectangle;html=1;whiteSpace=wrap;connectable=0;overflow=hidden;top=1;left=1;bottom=1;right=1;pointerEvents=1;shadow=0;sketch=0;strokeWidth=1;fontSize=20;dashed=1;fontColor=#000000;strokeColor=#000000;fillColor=none;" vertex="1" parent="2163">
                    <mxGeometry x="527" width="23" height="33" as="geometry">
                        <mxRectangle width="23" height="33" as="alternateBounds"/>
                    </mxGeometry>
                </mxCell>
                <mxCell id="2190" value="" style="endArrow=none;html=1;fontSize=12;fontColor=#000000;strokeColor=#000000;" edge="1" parent="1">
                    <mxGeometry width="50" height="50" relative="1" as="geometry">
                        <mxPoint x="119.5" y="1230" as="sourcePoint"/>
                        <mxPoint x="989.5" y="1230" as="targetPoint"/>
                    </mxGeometry>
                </mxCell>
                <mxCell id="2191" value="舍入后的最终结果" style="edgeLabel;html=1;align=center;verticalAlign=middle;resizable=0;points=[];fontSize=17;fontStyle=1;fontColor=#000000;labelBackgroundColor=none;" vertex="1" connectable="0" parent="2190">
                    <mxGeometry x="-0.0613" y="-3" relative="1" as="geometry">
                        <mxPoint x="16" y="-17" as="offset"/>
                    </mxGeometry>
                </mxCell>
                <mxCell id="2192" value="1" style="shape=partialRectangle;html=1;whiteSpace=wrap;connectable=0;overflow=hidden;top=1;left=1;bottom=1;right=1;pointerEvents=1;shadow=0;sketch=0;strokeWidth=1;fillColor=#60a917;strokeColor=#000000;fontSize=20;fontColor=#FFFFFF;perimeterSpacing=0;" vertex="1" parent="1">
                    <mxGeometry x="288.5" y="1260" width="21" height="33" as="geometry">
                        <mxRectangle width="21" height="33" as="alternateBounds"/>
                    </mxGeometry>
                </mxCell>
                <mxCell id="2193" value="1" style="shape=partialRectangle;html=1;whiteSpace=wrap;connectable=0;overflow=hidden;top=1;left=1;bottom=1;right=1;pointerEvents=1;shadow=0;sketch=0;strokeWidth=1;fillColor=#60a917;strokeColor=#000000;fontSize=20;fontColor=#FFFFFF;perimeterSpacing=0;" vertex="1" parent="1">
                    <mxGeometry x="309.5" y="1260" width="23" height="33" as="geometry">
                        <mxRectangle width="23" height="33" as="alternateBounds"/>
                    </mxGeometry>
                </mxCell>
                <mxCell id="2194" value="1" style="shape=partialRectangle;html=1;whiteSpace=wrap;connectable=0;overflow=hidden;top=1;left=1;bottom=1;right=1;pointerEvents=1;shadow=0;sketch=0;strokeWidth=1;fillColor=#60a917;strokeColor=#000000;fontSize=20;fontColor=#FFFFFF;perimeterSpacing=0;" vertex="1" parent="1">
                    <mxGeometry x="332.5" y="1260" width="21" height="33" as="geometry">
                        <mxRectangle width="21" height="33" as="alternateBounds"/>
                    </mxGeometry>
                </mxCell>
                <mxCell id="2195" value="1" style="shape=partialRectangle;html=1;whiteSpace=wrap;connectable=0;overflow=hidden;top=1;left=1;bottom=1;right=1;pointerEvents=1;shadow=0;sketch=0;strokeWidth=1;fillColor=#60a917;strokeColor=#000000;fontSize=20;fontColor=#FFFFFF;perimeterSpacing=0;" vertex="1" parent="1">
                    <mxGeometry x="353.5" y="1260" width="24" height="33" as="geometry">
                        <mxRectangle width="24" height="33" as="alternateBounds"/>
                    </mxGeometry>
                </mxCell>
                <mxCell id="2196" value="1" style="shape=partialRectangle;html=1;whiteSpace=wrap;connectable=0;overflow=hidden;top=1;left=1;bottom=1;right=1;pointerEvents=1;shadow=0;sketch=0;strokeWidth=1;fillColor=#60a917;strokeColor=#000000;fontSize=20;fontColor=#FFFFFF;perimeterSpacing=0;" vertex="1" parent="1">
                    <mxGeometry x="377.5" y="1260" width="20" height="33" as="geometry">
                        <mxRectangle width="20" height="33" as="alternateBounds"/>
                    </mxGeometry>
                </mxCell>
                <mxCell id="2197" value="0" style="shape=partialRectangle;html=1;whiteSpace=wrap;connectable=0;overflow=hidden;top=1;left=1;bottom=1;right=1;pointerEvents=1;shadow=0;sketch=0;strokeWidth=1;fillColor=#60a917;strokeColor=#000000;fontSize=20;fontColor=#FFFFFF;perimeterSpacing=0;" vertex="1" parent="1">
                    <mxGeometry x="397.5" y="1260" width="24" height="33" as="geometry">
                        <mxRectangle width="24" height="33" as="alternateBounds"/>
                    </mxGeometry>
                </mxCell>
                <mxCell id="2198" value="1" style="shape=partialRectangle;html=1;whiteSpace=wrap;connectable=0;overflow=hidden;top=1;left=1;bottom=1;right=1;pointerEvents=1;shadow=0;sketch=0;strokeWidth=1;fillColor=#60a917;strokeColor=#000000;fontSize=20;fontColor=#FFFFFF;perimeterSpacing=0;" vertex="1" parent="1">
                    <mxGeometry x="421.5" y="1260" width="21" height="33" as="geometry">
                        <mxRectangle width="21" height="33" as="alternateBounds"/>
                    </mxGeometry>
                </mxCell>
                <mxCell id="2199" value="0" style="shape=partialRectangle;html=1;whiteSpace=wrap;connectable=0;overflow=hidden;top=1;left=1;bottom=1;right=1;pointerEvents=1;shadow=0;sketch=0;strokeWidth=1;fillColor=#d80073;strokeColor=#000000;fontSize=20;fontColor=#FFFFFF;" vertex="1" parent="1">
                    <mxGeometry x="442.5" y="1260" width="21" height="33" as="geometry">
                        <mxRectangle width="21" height="33" as="alternateBounds"/>
                    </mxGeometry>
                </mxCell>
                <mxCell id="2200" value="0" style="shape=partialRectangle;html=1;whiteSpace=wrap;connectable=0;overflow=hidden;top=1;left=1;bottom=1;right=1;pointerEvents=1;shadow=0;sketch=0;strokeWidth=1;fillColor=#d80073;strokeColor=#000000;fontSize=20;fontColor=#FFFFFF;" vertex="1" parent="1">
                    <mxGeometry x="463.5" y="1260" width="21" height="33" as="geometry">
                        <mxRectangle width="21" height="33" as="alternateBounds"/>
                    </mxGeometry>
                </mxCell>
                <mxCell id="2201" value="1" style="shape=partialRectangle;html=1;whiteSpace=wrap;connectable=0;overflow=hidden;top=1;left=1;bottom=1;right=1;pointerEvents=1;shadow=0;sketch=0;strokeWidth=1;fillColor=#d80073;strokeColor=#000000;fontSize=20;fontColor=#FFFFFF;" vertex="1" parent="1">
                    <mxGeometry x="484.5" y="1260" width="21" height="33" as="geometry">
                        <mxRectangle width="21" height="33" as="alternateBounds"/>
                    </mxGeometry>
                </mxCell>
                <mxCell id="2202" value="1" style="shape=partialRectangle;html=1;whiteSpace=wrap;connectable=0;overflow=hidden;top=1;left=1;bottom=1;right=1;pointerEvents=1;shadow=0;sketch=0;strokeWidth=1;fillColor=#d80073;strokeColor=#000000;fontSize=20;fontColor=#FFFFFF;" vertex="1" parent="1">
                    <mxGeometry x="505.5" y="1260" width="23" height="33" as="geometry">
                        <mxRectangle width="23" height="33" as="alternateBounds"/>
                    </mxGeometry>
                </mxCell>
                <mxCell id="2203" value="0" style="shape=partialRectangle;html=1;whiteSpace=wrap;connectable=0;overflow=hidden;top=1;left=1;bottom=1;right=1;pointerEvents=1;shadow=0;sketch=0;strokeWidth=1;fillColor=#d80073;strokeColor=#000000;fontSize=20;fontColor=#FFFFFF;" vertex="1" parent="1">
                    <mxGeometry x="528.5" y="1260" width="21" height="33" as="geometry">
                        <mxRectangle width="21" height="33" as="alternateBounds"/>
                    </mxGeometry>
                </mxCell>
                <mxCell id="2204" value="0" style="shape=partialRectangle;html=1;whiteSpace=wrap;connectable=0;overflow=hidden;top=1;left=1;bottom=1;right=1;pointerEvents=1;shadow=0;sketch=0;strokeWidth=1;fillColor=#d80073;strokeColor=#000000;fontSize=20;fontColor=#FFFFFF;" vertex="1" parent="1">
                    <mxGeometry x="549.5" y="1260" width="24" height="33" as="geometry">
                        <mxRectangle width="24" height="33" as="alternateBounds"/>
                    </mxGeometry>
                </mxCell>
                <mxCell id="2205" value="1" style="shape=partialRectangle;html=1;whiteSpace=wrap;connectable=0;overflow=hidden;top=1;left=1;bottom=1;right=1;pointerEvents=1;shadow=0;sketch=0;strokeWidth=1;fillColor=#d80073;strokeColor=#000000;fontSize=20;fontColor=#FFFFFF;" vertex="1" parent="1">
                    <mxGeometry x="573.5" y="1260" width="20" height="33" as="geometry">
                        <mxRectangle width="20" height="33" as="alternateBounds"/>
                    </mxGeometry>
                </mxCell>
                <mxCell id="2206" value="1" style="shape=partialRectangle;html=1;whiteSpace=wrap;connectable=0;overflow=hidden;top=1;left=1;bottom=1;right=1;pointerEvents=1;shadow=0;sketch=0;strokeWidth=1;fillColor=#d80073;strokeColor=#000000;fontSize=20;fontColor=#FFFFFF;" vertex="1" parent="1">
                    <mxGeometry x="593.5" y="1260" width="23" height="33" as="geometry">
                        <mxRectangle width="23" height="33" as="alternateBounds"/>
                    </mxGeometry>
                </mxCell>
                <mxCell id="2207" value="0" style="shape=partialRectangle;html=1;whiteSpace=wrap;connectable=0;overflow=hidden;top=1;left=1;bottom=1;right=1;pointerEvents=1;shadow=0;sketch=0;strokeWidth=1;fillColor=#d80073;strokeColor=#000000;fontSize=20;fontColor=#FFFFFF;" vertex="1" parent="1">
                    <mxGeometry x="616.5" y="1260" width="22" height="33" as="geometry">
                        <mxRectangle width="22" height="33" as="alternateBounds"/>
                    </mxGeometry>
                </mxCell>
                <mxCell id="2208" value="0" style="shape=partialRectangle;html=1;whiteSpace=wrap;connectable=0;overflow=hidden;top=1;left=1;bottom=1;right=1;pointerEvents=1;shadow=0;sketch=0;strokeWidth=1;fillColor=#d80073;strokeColor=#000000;fontSize=20;fontColor=#FFFFFF;" vertex="1" parent="1">
                    <mxGeometry x="638.5" y="1260" width="23" height="33" as="geometry">
                        <mxRectangle width="23" height="33" as="alternateBounds"/>
                    </mxGeometry>
                </mxCell>
                <mxCell id="2209" value="1" style="shape=partialRectangle;html=1;whiteSpace=wrap;connectable=0;overflow=hidden;top=1;left=1;bottom=1;right=1;pointerEvents=1;shadow=0;sketch=0;strokeWidth=1;fillColor=#d80073;strokeColor=#000000;fontSize=20;fontColor=#FFFFFF;" vertex="1" parent="1">
                    <mxGeometry x="661.5" y="1260" width="23" height="33" as="geometry">
                        <mxRectangle width="23" height="33" as="alternateBounds"/>
                    </mxGeometry>
                </mxCell>
                <mxCell id="2210" value="1" style="shape=partialRectangle;html=1;whiteSpace=wrap;connectable=0;overflow=hidden;top=1;left=1;bottom=1;right=1;pointerEvents=1;shadow=0;sketch=0;strokeWidth=1;fillColor=#d80073;strokeColor=#000000;fontSize=20;fontColor=#FFFFFF;" vertex="1" parent="1">
                    <mxGeometry x="684.5" y="1260" width="21" height="33" as="geometry">
                        <mxRectangle width="21" height="33" as="alternateBounds"/>
                    </mxGeometry>
                </mxCell>
                <mxCell id="2211" value="0" style="shape=partialRectangle;html=1;whiteSpace=wrap;connectable=0;overflow=hidden;top=1;left=1;bottom=1;right=1;pointerEvents=1;shadow=0;sketch=0;strokeWidth=1;fillColor=#d80073;strokeColor=#000000;fontSize=20;fontColor=#FFFFFF;" vertex="1" parent="1">
                    <mxGeometry x="705.5" y="1260" width="24" height="33" as="geometry">
                        <mxRectangle width="24" height="33" as="alternateBounds"/>
                    </mxGeometry>
                </mxCell>
                <mxCell id="2212" value="0" style="shape=partialRectangle;html=1;whiteSpace=wrap;connectable=0;overflow=hidden;top=1;left=1;bottom=1;right=1;pointerEvents=1;shadow=0;sketch=0;strokeWidth=1;fillColor=#d80073;strokeColor=#000000;fontSize=20;fontColor=#FFFFFF;" vertex="1" parent="1">
                    <mxGeometry x="729.5" y="1260" width="19" height="33" as="geometry">
                        <mxRectangle width="19" height="33" as="alternateBounds"/>
                    </mxGeometry>
                </mxCell>
                <mxCell id="2213" value="1" style="shape=partialRectangle;html=1;whiteSpace=wrap;connectable=0;overflow=hidden;top=1;left=1;bottom=1;right=1;pointerEvents=1;shadow=0;sketch=0;strokeWidth=1;fillColor=#d80073;strokeColor=#000000;fontSize=20;fontColor=#FFFFFF;" vertex="1" parent="1">
                    <mxGeometry x="748.5" y="1260" width="24" height="33" as="geometry">
                        <mxRectangle width="24" height="33" as="alternateBounds"/>
                    </mxGeometry>
                </mxCell>
                <mxCell id="2214" value="1" style="shape=partialRectangle;html=1;whiteSpace=wrap;connectable=0;overflow=hidden;top=1;left=1;bottom=1;right=1;pointerEvents=1;shadow=0;sketch=0;strokeWidth=1;fillColor=#d80073;strokeColor=#000000;fontSize=20;fontColor=#FFFFFF;" vertex="1" parent="1">
                    <mxGeometry x="772.5" y="1260" width="22" height="33" as="geometry">
                        <mxRectangle width="22" height="33" as="alternateBounds"/>
                    </mxGeometry>
                </mxCell>
                <mxCell id="2215" value="0" style="shape=partialRectangle;html=1;whiteSpace=wrap;connectable=0;overflow=hidden;top=1;left=1;bottom=1;right=1;pointerEvents=1;shadow=0;sketch=0;strokeWidth=1;fillColor=#d80073;strokeColor=#000000;fontSize=20;fontColor=#FFFFFF;" vertex="1" parent="1">
                    <mxGeometry x="794.5" y="1260" width="22" height="33" as="geometry">
                        <mxRectangle width="22" height="33" as="alternateBounds"/>
                    </mxGeometry>
                </mxCell>
                <mxCell id="2216" value="0" style="shape=partialRectangle;html=1;whiteSpace=wrap;connectable=0;overflow=hidden;top=1;left=1;bottom=1;right=1;pointerEvents=1;shadow=0;sketch=0;strokeWidth=1;fillColor=#d80073;strokeColor=#000000;fontSize=20;fontColor=#FFFFFF;" vertex="1" parent="1">
                    <mxGeometry x="816.5" y="1260" width="23" height="33" as="geometry">
                        <mxRectangle width="23" height="33" as="alternateBounds"/>
                    </mxGeometry>
                </mxCell>
                <mxCell id="2217" value="1" style="shape=partialRectangle;html=1;whiteSpace=wrap;connectable=0;overflow=hidden;top=1;left=1;bottom=1;right=1;pointerEvents=1;shadow=0;sketch=0;strokeWidth=1;fillColor=#d80073;strokeColor=#000000;fontSize=20;fontColor=#FFFFFF;" vertex="1" parent="1">
                    <mxGeometry x="839.5" y="1260" width="19" height="33" as="geometry">
                        <mxRectangle width="19" height="33" as="alternateBounds"/>
                    </mxGeometry>
                </mxCell>
                <mxCell id="2218" value="1" style="shape=partialRectangle;html=1;whiteSpace=wrap;connectable=0;overflow=hidden;top=1;left=1;bottom=1;right=1;pointerEvents=1;shadow=0;sketch=0;strokeWidth=1;fillColor=#d80073;strokeColor=#000000;fontSize=20;fontColor=#FFFFFF;" vertex="1" parent="1">
                    <mxGeometry x="858.5" y="1260" width="24" height="33" as="geometry">
                        <mxRectangle width="24" height="33" as="alternateBounds"/>
                    </mxGeometry>
                </mxCell>
                <mxCell id="2219" value="0" style="shape=partialRectangle;html=1;whiteSpace=wrap;connectable=0;overflow=hidden;top=1;left=1;bottom=1;right=1;pointerEvents=1;shadow=0;sketch=0;strokeWidth=1;fillColor=#d80073;strokeColor=#000000;fontSize=20;fontColor=#FFFFFF;" vertex="1" parent="1">
                    <mxGeometry x="882.5" y="1260" width="20" height="33" as="geometry">
                        <mxRectangle width="20" height="33" as="alternateBounds"/>
                    </mxGeometry>
                </mxCell>
                <mxCell id="2220" value="1" style="shape=partialRectangle;html=1;whiteSpace=wrap;connectable=0;overflow=hidden;top=1;left=1;bottom=1;right=1;pointerEvents=1;shadow=0;sketch=0;strokeWidth=1;fillColor=#d80073;strokeColor=#000000;fontSize=20;fontColor=#FFFFFF;" vertex="1" parent="1">
                    <mxGeometry x="902.5" y="1260" width="24" height="33" as="geometry">
                        <mxRectangle width="24" height="33" as="alternateBounds"/>
                    </mxGeometry>
                </mxCell>
                <mxCell id="2221" value="0" style="shape=partialRectangle;html=1;whiteSpace=wrap;connectable=0;overflow=hidden;top=1;left=1;bottom=1;right=1;pointerEvents=1;shadow=0;sketch=0;strokeWidth=1;fillColor=#d80073;strokeColor=#000000;fontSize=20;fontColor=#FFFFFF;" vertex="1" parent="1">
                    <mxGeometry x="926.5" y="1260" width="22" height="33" as="geometry">
                        <mxRectangle width="22" height="33" as="alternateBounds"/>
                    </mxGeometry>
                </mxCell>
                <mxCell id="2222" value="0" style="shape=partialRectangle;html=1;whiteSpace=wrap;connectable=0;overflow=hidden;top=1;left=1;bottom=1;right=1;pointerEvents=1;shadow=0;sketch=0;strokeWidth=1;fillColor=#1ba1e2;strokeColor=#000000;fontSize=20;fontColor=#FFFFFF;perimeterSpacing=0;" vertex="1" parent="1">
                    <mxGeometry x="267" y="1260" width="21" height="33" as="geometry">
                        <mxRectangle width="21" height="33" as="alternateBounds"/>
                    </mxGeometry>
                </mxCell>
                <mxCell id="2223" value="转10进制为：[1.00110011001100101011010]&lt;sub&gt;2&lt;/sub&gt;*2&lt;sup&gt;-2 &lt;/sup&gt;= 0.299998104572296142578125" style="text;html=1;align=center;verticalAlign=middle;resizable=0;points=[];autosize=1;strokeColor=none;fillColor=none;fontSize=17;fontColor=#000000;" vertex="1" parent="1">
                    <mxGeometry x="262" y="1310" width="660" height="40" as="geometry"/>
                </mxCell>
            </root>
        </mxGraphModel>
    </diagram>
</mxfile>